<svg width="388" height="460" viewBox="0 0 388 460" fill="none" xmlns="http://www.w3.org/2000/svg">
<g opacity="0.3">
<path d="M103.062 0.604187H17.2053V43.5328H103.062V0.604187Z" fill="#B0CA71"/>
<path d="M167.372 447.496L149.687 232.029C147.43 202.207 150.064 172.385 155.331 142.562C155.708 140.326 156.084 138.462 156.084 136.225C156.084 111.994 131.626 91.1186 96.6324 82.5446V63.9056H24.0113V82.5446C-10.9823 91.4914 -35.8165 111.994 -35.8165 136.225C-35.8165 138.462 -35.4402 140.698 -35.0639 142.562C-29.7961 172.012 -26.7859 201.834 -29.4198 232.029L-47.1048 447.496C-48.2336 460.544 -37.6979 471.727 -24.5282 471.727H144.796C157.965 471.727 168.501 460.544 167.372 447.496ZM60.1337 387.479C28.1503 387.479 2.1873 347.591 2.1873 298.384C2.1873 249.177 28.1503 209.29 60.1337 209.29C92.1171 209.29 118.08 249.177 118.08 298.384C118.08 347.591 92.1171 387.479 60.1337 387.479Z" fill="#B0CA71"/>
</g>
<g opacity="0.3">
<path d="M378.062 4.60419H292.205V47.5328H378.062V4.60419Z" fill="#B0CA71"/>
<path d="M442.372 451.496L424.687 236.029C422.43 206.207 425.064 176.385 430.331 146.562C430.708 144.326 431.084 142.462 431.084 140.225C431.084 115.994 406.626 95.1186 371.632 86.5446V67.9056H299.011V86.5446C264.018 95.4914 239.183 115.994 239.183 140.225C239.183 142.462 239.56 144.698 239.936 146.562C245.204 176.012 248.214 205.834 245.58 236.029L227.895 451.496C226.766 464.544 237.302 475.727 250.472 475.727H419.796C432.965 475.727 443.501 464.544 442.372 451.496ZM335.134 391.479C303.15 391.479 277.187 351.591 277.187 302.384C277.187 253.177 303.15 213.29 335.134 213.29C367.117 213.29 393.08 253.177 393.08 302.384C393.08 351.591 367.117 391.479 335.134 391.479Z" fill="#B0CA71"/>
</g>
</svg>
