<svg width="72.000000" height="58.000000" viewBox="0 0 72 58" fill="none" xmlns="http://www.w3.org/2000/svg" xmlns:xlink="http://www.w3.org/1999/xlink">
	<desc>
			Created with Pixso.
	</desc>
	<defs/>
	<path id="Vector" d="M43.5309 28.2139C43.5048 28.2109 43.4757 28.2109 43.4467 28.2109C43.4176 28.2109 43.3914 28.2139 43.3623 28.2139C42.9467 28.2546 42.6182 28.6093 42.6182 29.0368C42.6182 29.4933 42.9873 29.8626 43.4437 29.8626C43.9001 29.8626 44.2693 29.4904 44.2693 29.0368C44.2722 28.6093 43.9467 28.2574 43.5309 28.2139Z" fill="#99B35B" fill-opacity="1.000000" fill-rule="nonzero"/>
	<path id="Vector" d="M53.7937 29.0366C53.7937 28.772 54.0088 28.5568 54.2733 28.5568L55.7239 28.5568C55.6075 25.5297 54.3895 22.7789 52.4623 20.6968L51.4419 21.7175C51.3489 21.8105 51.2268 21.8571 51.1047 21.8571C50.9827 21.8571 50.8606 21.8105 50.7676 21.7175C50.5815 21.5314 50.5815 21.2289 50.7676 21.0399L51.7878 20.0192C49.7065 18.0913 46.9565 16.8729 43.9275 16.7566L43.9275 18.2076C43.9275 18.4722 43.7124 18.6874 43.4479 18.6874C43.1833 18.6874 42.9683 18.4722 42.9683 18.2076L42.9683 16.7566C39.9421 16.8729 37.1921 18.0913 35.1079 20.0192L36.1282 21.0399C36.3142 21.226 36.3142 21.5284 36.1282 21.7175C36.0352 21.8105 35.9131 21.8571 35.791 21.8571C35.6689 21.8571 35.5469 21.8105 35.4537 21.7175L34.4335 20.6968C32.5061 22.7789 31.2882 25.5297 31.1719 28.5598L32.6224 28.5598C32.887 28.5598 33.1021 28.775 33.1021 29.0396C33.1021 29.3042 32.887 29.5193 32.6224 29.5193L31.1719 29.5193C31.2882 32.5465 32.5061 35.2974 34.4335 37.3823L35.4537 36.3616C35.6399 36.1755 35.9421 36.1755 36.1311 36.3616C36.3171 36.5477 36.3171 36.8502 36.1311 37.0392L35.1107 38.0599C37.1921 39.9878 39.9421 41.2062 42.9711 41.3225L42.9711 39.8715C42.9711 39.6069 43.1863 39.3917 43.4508 39.3917C43.7153 39.3917 43.9304 39.6069 43.9304 39.8715L43.9304 41.3225C46.9565 41.2062 49.7065 39.9878 51.7908 38.0599L50.7704 37.0392C50.5844 36.8531 50.5844 36.5507 50.7704 36.3616C50.9564 36.1726 51.2588 36.1755 51.4478 36.3616L52.4681 37.3823C54.3954 35.3003 55.6134 32.5494 55.7296 29.5223L54.2791 29.5223C54.0088 29.5165 53.7937 29.3013 53.7937 29.0366ZM49.1948 34.7827C49.1018 34.8757 48.9797 34.9222 48.8577 34.9222C48.7356 34.9222 48.6135 34.8757 48.5205 34.7827L44.3286 30.5895C44.0699 30.7349 43.7705 30.8192 43.4537 30.8192C42.4712 30.8192 41.6718 30.0195 41.6718 29.0366C41.6718 28.2195 42.224 27.5275 42.9769 27.3181L42.9769 22.805C42.9769 22.5404 43.192 22.3252 43.4565 22.3252C43.7211 22.3252 43.9363 22.5404 43.9363 22.805L43.9363 27.321C44.6862 27.5303 45.2415 28.2224 45.2415 29.0396C45.2415 29.3565 45.1571 29.656 45.0118 29.9149L49.2036 34.108C49.3809 34.2941 49.3809 34.5966 49.1948 34.7827Z" fill="#99B35B" fill-opacity="1.000000" fill-rule="nonzero"/>
	<path id="Vector" d="M43.4465 14C35.1589 14 28.4148 20.7463 28.4148 29.0367C28.4148 37.3271 35.1589 44.0735 43.4465 44.0735C51.7343 44.0735 58.4783 37.3271 58.4783 29.0367C58.4783 20.7463 51.7343 14 43.4465 14ZM52.8098 38.4031C51.5947 39.6186 50.179 40.5753 48.6006 41.2412C46.9668 41.9333 45.2344 42.2822 43.4465 42.2822C41.6588 42.2822 39.9263 41.9333 38.2926 41.2412C36.717 40.5753 35.3013 39.6186 34.0834 38.4031C32.8682 37.1876 31.9119 35.7714 31.2461 34.1924C30.5543 32.5582 30.2054 30.8251 30.2054 29.0367C30.2054 27.2484 30.5543 25.5153 31.2461 23.881C31.9119 22.3049 32.8682 20.8888 34.0834 19.6704C35.2985 18.4549 36.7141 17.4982 38.2926 16.8323C39.9263 16.1402 41.6588 15.7913 43.4465 15.7913C45.2344 15.7913 46.9668 16.1402 48.6006 16.8323C50.1761 17.5011 51.5918 18.4549 52.8098 19.6704C54.0249 20.8859 54.9813 22.3021 55.647 23.881C56.3389 25.5153 56.6876 27.2484 56.6876 29.0367C56.6876 30.8251 56.3389 32.5582 55.647 34.1924C54.9813 35.7686 54.0249 37.1847 52.8098 38.4031Z" fill="#99B35B" fill-opacity="1.000000" fill-rule="nonzero"/>
	<path id="Vector" d="M22.9042 18.8708L31.1046 18.8708C31.375 18.5422 31.6628 18.2223 31.9594 17.9141L22.9042 17.9141C22.6396 17.9141 22.4246 18.1293 22.4246 18.3939C22.4275 18.6556 22.6396 18.8708 22.9042 18.8708Z" fill="#99B35B" fill-opacity="1.000000" fill-rule="nonzero"/>
	<path id="Vector" d="M22.9042 39.2029C22.6396 39.2029 22.4246 39.4181 22.4246 39.6827C22.4246 39.9473 22.6396 40.1625 22.9042 40.1625L31.9594 40.1625C31.6599 39.8542 31.375 39.5344 31.1046 39.2058L22.9042 39.2029Z" fill="#99B35B" fill-opacity="1.000000" fill-rule="nonzero"/>
	<path id="Vector" d="M18.8683 24.1921L28.2054 24.1921C28.3071 23.8693 28.4205 23.5523 28.5426 23.2354L18.8683 23.2354C18.6038 23.2354 18.3887 23.4506 18.3887 23.7151C18.3916 23.9798 18.6067 24.1921 18.8683 24.1921Z" fill="#99B35B" fill-opacity="1.000000" fill-rule="nonzero"/>
	<path id="Vector" d="M28.2054 33.8813L18.8683 33.8813C18.6038 33.8813 18.3887 34.0966 18.3887 34.3611C18.3887 34.6258 18.6038 34.8409 18.8683 34.8409L28.5426 34.8409C28.4205 34.5211 28.3071 34.2012 28.2054 33.8813Z" fill="#99B35B" fill-opacity="1.000000" fill-rule="nonzero"/>
	<path id="Vector" d="M19.8458 28.5571C19.5813 28.5571 19.3662 28.7723 19.3662 29.0369C19.3662 29.3016 19.5813 29.5167 19.8458 29.5167L27.4679 29.5167C27.462 29.3568 27.462 29.1968 27.462 29.0369C27.462 28.877 27.465 28.717 27.4679 28.5571L19.8458 28.5571Z" fill="#99B35B" fill-opacity="1.000000" fill-rule="nonzero"/>
	<path id="Vector" d="M16.6976 28.5571L14.4796 28.5571C14.2151 28.5571 14 28.7723 14 29.0369C14 29.3016 14.2151 29.5167 14.4796 29.5167L16.6976 29.5167C16.9622 29.5167 17.1772 29.3016 17.1772 29.0369C17.1772 28.7723 16.9622 28.5571 16.6976 28.5571Z" fill="#99B35B" fill-opacity="1.000000" fill-rule="nonzero"/>
</svg>
