<svg width="72.000000" height="58.000000" viewBox="0 0 72 58" fill="none" xmlns="http://www.w3.org/2000/svg" xmlns:xlink="http://www.w3.org/1999/xlink">
	<desc>
			Created with Pixso.
	</desc>
	<defs/>
	<path id="Vector" d="M29.9211 37.8323C29.6993 37.655 29.4333 37.522 29.1229 37.522L27.2605 37.3889C25.3536 37.2559 23.6686 36.2803 22.5601 34.8613L18.1256 44.3066C17.6823 45.1934 18.4805 46.2133 19.4559 45.9916L23.4469 45.2378C23.979 45.1491 24.4668 45.3708 24.7329 45.8142L26.684 49.3618C27.1718 50.2486 28.4135 50.2043 28.8125 49.2731L33.1582 40.0939C32.493 39.8278 31.9166 39.4731 31.3844 39.0297L29.9211 37.8323Z" fill="#99B35B" fill-opacity="1.000000" fill-rule="nonzero"/>
	<path id="Vector" d="M53.069 44.3065L48.6346 34.8169C47.5703 36.2359 45.8853 37.1671 43.9785 37.3445L42.1161 37.4775C41.85 37.5219 41.5396 37.6105 41.3179 37.7879L39.8989 39.0295C39.3667 39.473 38.746 39.8721 38.1251 40.0938L42.4265 49.2729C42.8699 50.1599 44.1116 50.2042 44.5994 49.3616L46.5504 45.8141C46.8165 45.3707 47.3043 45.1047 47.8364 45.2377L51.8274 45.9915C52.7142 46.2133 53.5125 45.1934 53.069 44.3065Z" fill="#99B35B" fill-opacity="1.000000" fill-rule="nonzero"/>
	<path id="Vector" d="M39.5886 35.8368C40.2094 35.3047 41.0076 34.95 41.8501 34.9056L43.7125 34.7725C45.6637 34.6395 47.2157 33.0875 47.3488 31.1364L47.4818 29.2739C47.5261 28.4314 47.8809 27.6332 48.413 27.0124L49.6545 25.5934C50.9406 24.0857 50.9406 21.9128 49.6545 20.4495L48.413 19.0305C47.8809 18.4097 47.5261 17.6115 47.4818 16.769L47.3488 14.9066C47.2157 12.9554 45.6637 11.4034 43.7125 11.2703L41.8501 11.1373C41.0076 11.093 40.2094 10.7382 39.5886 10.2061L38.1696 8.96448C36.6619 7.67853 34.489 7.67853 33.0256 8.96448L31.6067 10.0731C30.9858 10.6052 30.1877 10.96 29.3451 11.0043L27.4827 11.1373C25.5316 11.2703 23.9796 12.8224 23.8466 14.7735L23.7135 16.6359C23.6692 17.4785 23.3145 18.2767 22.7822 18.8975L21.5406 20.3165C20.2546 21.8242 20.2546 23.997 21.5406 25.4603L22.7822 26.8793C23.3145 27.5002 23.6692 28.2983 23.7135 29.1409L23.8466 31.0033C23.9796 32.9545 25.5316 34.5065 27.4827 34.6395L29.3451 34.7725C30.1877 34.8169 30.9858 35.1716 31.6067 35.7037L33.0256 36.9454C34.5333 38.2314 36.7062 38.2314 38.1696 36.9454L39.5886 35.8368ZM36.6619 30.6486C36.6619 30.8259 36.5288 30.959 36.3514 30.959L34.8438 30.959C34.6664 30.959 34.5333 30.8259 34.5333 30.6486L34.5333 29.1409C32.9813 29.0522 31.7397 27.8549 31.6067 26.3029C31.6067 26.1255 31.7397 25.9925 31.9171 25.9925L33.4248 25.9925C33.5579 25.9925 33.6908 26.0812 33.6908 26.2142C33.7795 26.702 34.223 27.0568 34.7107 27.0568L36.041 27.0568C36.8392 27.0568 37.5487 26.4803 37.6375 25.7264C37.7261 24.8395 37.0166 24.0414 36.1298 24.0414L35.1542 24.0414C33.2474 24.0414 31.5624 22.6667 31.385 20.8043C31.2076 18.8088 32.6266 17.1237 34.489 16.8577L34.489 15.35C34.489 15.1726 34.6221 15.0396 34.7994 15.0396L36.3071 15.0396C36.4845 15.0396 36.6176 15.1726 36.6176 15.35L36.6176 16.8577C38.1696 16.9464 39.4111 18.1436 39.5442 19.6957C39.5442 19.873 39.4111 20.0061 39.2338 20.0061L37.7261 20.0061C37.5931 20.0061 37.4601 19.9174 37.4601 19.7844C37.3713 19.2966 36.928 18.9418 36.4402 18.9418L35.1099 18.9418C34.3116 18.9418 33.6022 19.5183 33.5134 20.2722C33.4248 21.159 34.1343 21.9572 35.0211 21.9572L36.1741 21.9572C38.3026 21.9572 39.9877 23.7753 39.766 25.9481C39.5886 27.5889 38.2583 28.8748 36.6619 29.1409L36.6619 30.6486Z" fill="#99B35B" fill-opacity="1.000000" fill-rule="nonzero"/>
</svg>
