<svg width="72.000000" height="58.000000" viewBox="0 0 72 58" fill="none" xmlns="http://www.w3.org/2000/svg" xmlns:xlink="http://www.w3.org/1999/xlink">
	<desc>
			Created with Pixso.
	</desc>
	<defs/>
	<path id="Vector" d="M32.9321 17.7185C32.9321 21.4291 29.8999 24.437 26.1594 24.437C22.4189 24.437 19.3867 21.4291 19.3867 17.7185C19.3867 14.0079 22.4189 11 26.1594 11C29.8999 11 32.9321 14.0079 32.9321 17.7185Z" fill="#99B35B" fill-opacity="1.000000" fill-rule="evenodd"/>
	<path id="Vector" d="M36.1488 31.6034C35.4716 28.86 32.9882 26.7324 29.9969 26.7324L22.3212 26.7324C18.8784 26.7324 16 29.5317 16 33.0031L16 39.6655C16 40.5614 16.7338 41.2892 17.6367 41.2892L32.9318 41.2892L32.9318 37.0342C32.9882 34.7386 34.2299 32.7231 36.1488 31.6034Z" fill="#99B35B" fill-opacity="1.000000" fill-rule="nonzero"/>
	<path id="Vector" d="M51.6694 23.2612C51.6694 26.9718 48.6372 29.9797 44.8967 29.9797C41.1562 29.9797 38.124 26.9718 38.124 23.2612C38.124 19.5507 41.1562 16.5427 44.8967 16.5427C48.6372 16.5427 51.6694 19.5507 51.6694 23.2612Z" fill="#99B35B" fill-opacity="1.000000" fill-rule="evenodd"/>
	<path id="Vector" d="M48.7352 32.4434L41.0594 32.4434C37.6167 32.4434 34.7383 35.2427 34.7383 38.714L34.7383 45.3765C34.7383 46.2723 35.472 47.0001 36.375 47.0001L53.3632 47.0001C54.2662 47.0001 55 46.2723 55 45.3765L55 38.714C55.0564 35.2427 52.178 32.4434 48.7352 32.4434Z" fill="#99B35B" fill-opacity="1.000000" fill-rule="nonzero"/>
</svg>
