<svg width="72.000000" height="58.000000" viewBox="0 0 72 58" fill="none" xmlns="http://www.w3.org/2000/svg" xmlns:xlink="http://www.w3.org/1999/xlink">
	<desc>
			Created with Pixso.
	</desc>
	<defs/>
	<path id="Vector" d="M26.2863 26.6511L20.8981 26.6511C20.395 26.6511 20 27.0461 20 27.5492L20 41.9175C20 42.4207 20.395 42.8156 20.8981 42.8156L26.2863 42.8156C26.7894 42.8156 27.1838 42.4207 27.1838 41.9175L27.1838 27.5492C27.1843 27.0461 26.7894 26.6511 26.2863 26.6511Z" fill="#99B35B" fill-opacity="1.000000" fill-rule="nonzero"/>
	<path id="Vector" d="M52.2678 28.3531C52.2678 26.8898 51.2631 25.4087 49.3441 25.4087L40.6442 25.4087C41.887 23.1854 42.2524 20.0583 41.3884 17.7704C40.7539 16.0875 39.541 15.1056 37.9716 15.0056L37.9462 15.0035C36.9248 14.9409 36.0406 15.7061 35.9558 16.7258C35.7322 18.9951 34.7378 23.0089 33.3127 24.4341C32.1128 25.6339 31.0858 26.1366 29.3833 26.9689C29.1368 27.0896 28.8677 27.2211 28.583 27.3629C28.5881 27.4244 28.5913 27.4861 28.5913 27.5492L28.5913 41.771C28.7968 41.8413 28.9998 41.9113 29.199 41.9796C32.0088 42.9481 34.437 43.7841 38.1486 43.7841L45.1823 43.7841C47.1017 43.7841 48.106 42.3026 48.106 40.8397C48.106 40.4054 48.0179 39.9701 47.8435 39.5715C48.4828 39.4565 49.0424 39.149 49.457 38.6786C49.9275 38.1438 50.1869 37.4331 50.1869 36.6774C50.1869 36.2446 50.0989 35.8092 49.9249 35.4117C51.4659 35.1456 52.2683 33.823 52.2683 32.5155C52.2683 31.7571 51.9982 30.9937 51.4712 30.4346C51.9971 29.875 52.2678 29.1115 52.2678 28.3531Z" fill="#99B35B" fill-opacity="1.000000" fill-rule="nonzero"/>
</svg>
