<svg width="390.298340" height="255.005127" viewBox="0 0 390.298 255.005" fill="none" xmlns="http://www.w3.org/2000/svg" xmlns:xlink="http://www.w3.org/1999/xlink">
	<desc>
			Created with Pixso.
	</desc>
	<defs/>
	<path id="Vector" d="M269.543 28.2654C255.993 56.9865 226.696 73.4043 210.506 79.395L197.908 83.791L211.216 83.1477C214.111 83.0137 217.006 82.6517 219.861 82.1292C220.357 82.0353 220.839 81.9147 221.335 81.8209L216.417 86.0962L213.481 88.6426L217.288 88.522C222.568 88.3612 227.822 87.624 232.875 86.2168C237.941 84.8497 242.806 82.8395 247.309 80.2662C242.511 82.2363 237.538 83.6838 232.513 84.6354C228.773 85.3054 224.994 85.7209 221.214 85.8014L228.907 79.7435L235.542 74.5166L227.339 76.795C226.616 76.9961 225.892 77.1569 225.168 77.3311C228.05 75.8434 230.864 74.2084 233.558 72.4259C236.935 70.201 240.206 67.7887 243.275 65.1619C246.344 62.5216 249.252 59.6937 251.959 56.705C257.374 50.7008 261.998 44.0131 265.656 36.8562C267.104 34.0685 268.404 31.1871 269.543 28.2654Z" fill="#FFFFFF" fill-opacity="1.000000" fill-rule="nonzero"/>
	<path id="Vector" d="M282.745 30.0479C284.715 35.6902 288.025 40.6758 291.818 45.1522C295.625 49.6285 299.98 53.6224 304.604 57.2277C306.923 59.0236 309.308 60.7257 311.774 62.2937C314.24 63.8618 316.76 65.3628 319.347 66.6763C321.933 68.0031 324.587 69.1691 327.294 70.0804C329.974 70.9918 332.776 71.7155 335.362 71.7021L347.612 71.6619L336.019 75.5352C334.169 76.1517 332.4 76.4465 330.645 76.6743C328.889 76.9022 327.147 77.0228 325.418 77.1166C321.96 77.2909 318.516 77.264 315.098 77.1837L316.009 73.3907C317.39 74.0475 318.971 74.5702 320.566 75.0125C322.161 75.4547 323.809 75.8301 325.458 76.1383C327.106 76.4465 328.782 76.6877 330.444 76.8486C332.105 77.0094 333.767 77.1033 335.349 77.0363L350.038 76.4062L336.032 80.8157C332.802 81.8342 329.465 82.5178 326.115 82.9198C322.764 83.3219 319.373 83.4425 316.009 83.2817C312.645 83.1074 309.295 82.6116 306.025 81.8611C302.755 81.0972 299.538 80.0652 296.455 78.725L297.983 76.6476C300.717 80.1991 304.336 83.094 308.41 85.0776L312.337 86.9941L308.035 86.8735C304.175 86.7662 300.342 86.1498 296.71 84.9703C293.065 83.8177 289.607 82.1425 286.484 80.0115C289.808 81.7941 293.359 83.1074 296.991 83.9518C300.624 84.7693 304.349 85.1714 308.035 84.9972L307.66 86.7931C303.183 84.9703 299.136 82.0353 295.933 78.3363L292.542 74.4227L297.461 76.2589C300.449 77.3713 303.532 78.2693 306.668 78.859C309.804 79.462 312.98 79.7703 316.157 79.8641C319.333 79.9446 322.509 79.7568 325.646 79.3013C328.782 78.8456 331.878 78.1084 334.88 77.1434L335.577 80.9095C333.687 81.0033 331.891 80.8961 330.095 80.7352C328.313 80.561 326.544 80.3198 324.788 80.0115C323.032 79.6898 321.29 79.3146 319.548 78.8456C317.805 78.363 316.076 77.8136 314.321 76.996L305.797 73.0424L315.232 73.2032C318.609 73.2568 321.96 73.2701 325.284 73.1361C326.946 73.0558 328.594 72.9485 330.202 72.7474C331.811 72.5464 333.406 72.2784 334.786 71.8228L335.443 75.6558C332.052 75.6156 329.01 74.7444 326.074 73.7393C323.166 72.6671 320.392 71.3402 317.711 69.8794C312.351 66.9578 307.392 63.4329 302.808 59.4927C300.503 57.5359 298.318 55.4318 296.254 53.2338C294.19 51.0358 292.22 48.7173 290.465 46.2646C286.9 41.3594 283.978 35.9181 282.745 30.0479Z" fill="#FFFFFF" fill-opacity="1.000000" fill-rule="nonzero"/>
	<path id="Vector" d="M228.065 128.97L234.337 121.813L226.188 126.866C223.87 128.3 221.323 129.386 218.697 130.069C217.236 130.444 215.748 130.699 214.26 130.86L218.804 124.614L213.644 125.941C211.526 126.491 209.382 126.973 207.211 127.322C205.053 127.67 202.868 127.911 200.67 128.032C198.767 128.139 196.851 128.139 194.948 128.086L195.618 127.764L199.29 125.767L202.882 123.623C207.626 120.701 212.089 117.337 216.244 113.665L219.313 110.85L222.248 107.902L225.063 104.846L227.73 101.67C231.187 97.3541 234.283 92.7705 236.87 87.9189C233.64 92.3551 230.155 96.5635 226.389 100.49L223.521 103.385L220.573 106.173L217.517 108.84L214.381 111.413C210.146 114.764 205.669 117.793 201.019 120.513L197.494 122.47L193.902 124.293L190.257 126.008L186.544 127.576L180.125 130.27L186.987 131.342C189.292 131.704 191.61 131.945 193.943 132.053C196.275 132.173 198.606 132.12 200.938 131.972C203.271 131.811 205.576 131.543 207.881 131.141C208.538 131.021 209.181 130.887 209.824 130.753L209.167 131.718L207.238 134.546L210.602 134.559C213.644 134.559 216.686 134.13 219.568 133.219C218.214 134.237 216.82 135.202 215.346 136.06L208.243 140.148L215.989 137.789C218.723 136.958 221.471 136.154 224.205 135.296C226.939 134.452 229.66 133.58 232.38 132.696C229.566 133.205 226.751 133.728 223.937 134.291C223.066 134.452 222.194 134.639 221.323 134.813C221.739 134.532 222.141 134.251 222.543 133.969C224.526 132.508 226.416 130.86 228.065 128.97Z" fill="#FFFFFF" fill-opacity="1.000000" fill-rule="nonzero"/>
	<path id="Vector" d="M314.213 85.1581C316.907 89.6881 319.829 94.0706 323.099 98.118C326.396 102.139 330.042 105.865 334.183 108.894C338.271 111.963 342.867 114.308 347.692 115.782C352.504 117.27 357.583 117.752 362.475 117.029L371.843 115.648L363.748 120.607C359.379 123.274 354.621 125.191 349.649 126.357C347.17 126.946 344.623 127.281 342.05 127.402C339.477 127.509 336.89 127.389 334.317 126.92L336.26 123.877C337.667 125.914 339.758 127.549 342.09 128.675L348.898 131.986L341.366 132.348C336.796 132.562 332.199 132.066 327.79 130.927C323.38 129.801 319.172 127.938 315.326 125.553L317.269 123.489C319.279 126.584 321.236 129.721 323.206 132.843L324.774 135.323L322.014 134.559C318.18 133.5 314.468 132.039 310.903 130.324C307.351 128.568 303.974 126.517 300.851 124.145C304.269 126.075 307.794 127.75 311.426 129.131C315.044 130.538 318.784 131.584 322.536 132.401L321.343 134.117C319.172 131.128 316.974 128.153 314.843 125.151L311.104 119.87L316.8 123.087C320.486 125.177 324.506 126.638 328.607 127.576C332.722 128.514 336.957 128.836 341.125 128.528L340.401 132.187C337.56 130.833 334.933 128.849 333.03 126.142L330.323 122.296L334.974 123.1C337.212 123.489 339.517 123.582 341.835 123.462C344.141 123.341 346.446 122.979 348.738 122.483C353.294 121.465 357.717 119.723 361.711 117.337L362.984 120.902C357.422 121.652 351.793 120.862 346.607 119.119C341.407 117.35 336.635 114.536 332.454 111.105C328.326 107.62 324.748 103.546 321.759 99.1366C318.77 94.7139 316.304 89.9963 314.213 85.1581Z" fill="#FFFFFF" fill-opacity="1.000000" fill-rule="nonzero"/>
	<path id="Vector" d="M226.508 137.655C224.297 143.632 221.214 149.315 217.421 154.501C215.532 157.115 213.454 159.581 211.216 161.913C208.978 164.245 206.606 166.456 204.059 168.467C198.98 172.487 193.378 175.891 187.387 178.451C181.41 181.025 175.11 182.874 168.637 183.799L168.744 179.939C171.17 180.408 173.623 180.743 176.075 180.958C178.541 181.172 181.007 181.239 183.474 181.226C188.406 181.172 193.351 180.609 198.162 179.523L205.815 177.808L199.851 182.887C197.948 184.509 196.018 186.117 194.088 187.726L192.801 184.429C198.9 184.308 204.971 182.78 210.492 180.127L215.961 177.513L212.543 182.418C209.742 186.453 206.083 189.87 201.848 192.269L201.071 189.937C206.231 189.589 211.364 188.677 216.376 187.27C218.882 186.546 221.362 185.729 223.801 184.764C226.227 183.785 228.639 182.74 230.971 181.52C228.773 182.968 226.508 184.335 224.136 185.514C221.777 186.707 219.338 187.779 216.832 188.691C211.846 190.527 206.619 191.787 201.298 192.443L196.005 193.1L200.521 190.111C204.274 187.632 207.517 184.415 209.889 180.649L211.94 182.941C206.123 186.091 199.57 187.833 192.935 188.155L187.601 188.423L191.649 184.858C193.525 183.196 195.415 181.547 197.318 179.926L199.007 183.29C193.927 184.469 188.727 185.112 183.5 185.219C180.887 185.273 178.287 185.152 175.687 184.911C173.087 184.67 170.5 184.281 167.954 183.772L156.776 181.507L168.061 179.912C174.186 179.054 180.23 177.473 185.993 175.168C191.743 172.836 197.264 169.86 202.304 166.188C204.823 164.339 207.262 162.382 209.541 160.251C211.833 158.12 213.99 155.842 216.028 153.443C220.115 148.645 223.627 143.337 226.508 137.655Z" fill="#FFFFFF" fill-opacity="1.000000" fill-rule="nonzero"/>
	<path id="Vector" d="M365.972 174.256L371.614 172.782L366.2 170.772C361.898 169.177 357.756 167.167 353.736 164.902C349.728 162.623 345.936 159.983 342.304 157.115L339.637 154.89L337.063 152.558L334.557 150.146L332.145 147.626C328.995 144.195 326.087 140.523 323.46 136.623C325.591 140.818 328.137 144.825 331.032 148.564L333.271 151.325L335.629 153.992L338.122 156.552L340.709 159.005C344.22 162.221 348.067 165.089 352.101 167.649C354.419 169.123 356.832 170.464 359.311 171.683C356.51 172.018 353.696 172.166 350.881 172.085C346.11 171.938 341.352 171.549 336.782 170.222L325.886 166.604L334.302 172.769L333.485 172.541C329.786 171.536 326.087 170.504 322.388 169.539L318.823 168.614L320.444 171.831L323.514 177.902C323.956 178.773 324.398 179.631 324.84 180.502C323.768 179.966 322.709 179.416 321.664 178.853C319.453 177.661 317.255 176.454 315.084 175.168C312.926 173.881 310.781 172.554 308.664 171.174C306.56 169.78 304.456 168.386 302.405 166.899C304.281 168.601 306.184 170.276 308.168 171.871C310.138 173.466 312.162 175.007 314.239 176.468C316.317 177.929 318.421 179.376 320.592 180.703C322.75 182.043 324.961 183.33 327.199 184.563L330.523 186.385L328.982 182.82C328.084 180.743 327.132 178.679 326.221 176.615L324.934 173.76C327.454 174.524 329.974 175.288 332.493 176.052L338.001 177.714L343.51 179.336L353.91 182.405L345.198 175.905L344.689 175.516C346.713 175.771 348.75 175.958 350.787 176.012C355.894 176.119 361.027 175.556 365.972 174.256Z" fill="#FFFFFF" fill-opacity="1.000000" fill-rule="nonzero"/>
	<path id="Vector" d="M210.265 193.274C208.818 199.828 206.553 206.234 203.564 212.305C200.589 218.39 196.903 224.126 192.641 229.42C188.393 234.727 183.501 239.525 178.167 243.801C172.833 248.063 166.976 251.681 160.798 254.63L160.034 251.065C167.512 251.025 174.991 250.153 182.241 248.331C185.873 247.433 189.425 246.267 192.923 244.953C196.421 243.626 199.825 242.085 203.122 240.33L210.252 236.537L205.668 243.171L198.445 253.638L196.635 250.663C202.036 250.073 207.344 248.505 212.249 246.119C217.154 243.72 221.711 240.571 225.584 236.671L230.905 231.31L228.01 238.239C226.174 242.635 224.298 247.017 222.421 251.4L221.068 249.818C223.909 249.229 226.71 248.425 229.458 247.46C232.205 246.495 234.899 245.342 237.499 244.015C240.099 242.688 242.632 241.201 245.058 239.539C247.484 237.877 249.816 236.068 252.013 234.098C249.99 236.255 247.832 238.292 245.5 240.142C243.181 241.991 240.729 243.707 238.156 245.221C235.582 246.736 232.902 248.076 230.141 249.242C227.38 250.408 224.512 251.346 221.604 252.097L219.459 252.66L220.25 250.529C221.912 246.066 223.574 241.589 225.289 237.14L227.715 238.708C223.735 242.97 219.031 246.575 213.817 249.229C208.604 251.896 202.948 253.692 197.104 254.456L192.909 255.005L195.295 251.48L202.425 240.959L204.971 243.801C201.541 245.664 197.989 247.299 194.357 248.706C190.725 250.127 186.986 251.266 183.193 252.191C175.607 254.013 167.807 254.978 160.007 254.817L151.671 254.643L159.23 251.252C165.22 248.572 170.89 245.154 176.17 241.214C181.464 237.287 186.302 232.744 190.698 227.798C195.081 222.84 198.94 217.398 202.251 211.622C205.521 205.805 208.228 199.68 210.265 193.274Z" fill="#FFFFFF" fill-opacity="1.000000" fill-rule="nonzero"/>
	<path id="Vector" d="M334.424 183.37C336.368 188.825 339.021 193.998 342.278 198.729C345.521 203.46 349.395 207.749 353.737 211.434C358.066 215.133 362.917 218.189 368.051 220.588C373.184 223 378.625 224.716 384.187 225.641L390.298 226.673L384.428 228.844C381.573 229.903 378.638 230.747 375.663 231.43C372.688 232.114 369.672 232.61 366.643 232.932C360.572 233.575 354.421 233.481 348.363 232.596L349.837 229.125C353.281 231.739 357.463 233.401 361.751 233.856L374.993 235.25L361.899 237.797C355.975 238.949 349.864 239.003 343.927 238.051C337.989 237.113 332.199 235.17 326.919 232.302L329.211 229.246C332.039 232.141 335.094 234.821 338.351 237.247C341.608 239.673 345.052 241.831 348.657 243.707L355.653 247.339L347.813 246.937C339.959 246.535 332.28 244.337 325.391 240.745C318.516 237.1 312.378 232.06 307.714 225.895L309.255 225.105C310.381 229.474 312.177 233.682 314.509 237.582C316.854 241.482 319.735 245.087 323.113 248.21C319.494 245.369 316.291 241.951 313.678 238.118C311.037 234.299 308.973 230.05 307.566 225.587L306.253 221.432L309.107 224.796C313.932 230.479 319.963 235.103 326.651 238.292C333.312 241.522 340.63 243.345 347.974 243.533L347.13 246.776C343.323 244.886 339.678 242.688 336.22 240.222C332.762 237.743 329.492 235.009 326.477 231.993L317.202 222.732L328.755 228.938C333.66 231.564 339.035 233.333 344.543 234.164C350.051 234.995 355.694 234.915 361.162 233.91L361.323 237.85C356.297 237.287 351.472 235.331 347.465 232.261L341.527 227.691L348.926 228.79C354.662 229.635 360.505 229.822 366.295 229.326C369.19 229.072 372.071 228.656 374.913 228.053C377.767 227.463 380.568 226.686 383.329 225.761L383.584 228.964C377.754 227.798 372.098 225.828 366.818 223.161C361.537 220.481 356.659 217.063 352.33 213.069C348.014 209.062 344.288 204.452 341.259 199.453C338.23 194.373 335.912 188.972 334.424 183.37Z" fill="#FFFFFF" fill-opacity="1.000000" fill-rule="nonzero"/>
	<path id="Vector" d="M275.722 0L280.306 9.28784L290.559 10.7888L283.134 18.0127L284.89 28.2252L275.722 23.4138L266.542 28.2252L268.297 18.0127L260.873 10.7888L271.125 9.28784L275.722 0Z" fill="#CD2A2A" fill-opacity="1.000000" fill-rule="nonzero"/>
	<circle id="Ellipse 1" cx="251.170654" cy="80.500000" r="4.500000" fill="#FFFFFF" fill-opacity="1.000000"/>
	<circle id="Ellipse 7" cx="289.170654" cy="61.500000" r="3.500000" fill="#FFFFFF" fill-opacity="1.000000"/>
	<circle id="Ellipse 2" cx="295.170654" cy="112.500000" r="3.500000" fill="#FFFFFF" fill-opacity="1.000000"/>
	<circle id="Ellipse 6" cx="225.670654" cy="171.000000" r="5.000000" fill="#FFFFFF" fill-opacity="1.000000"/>
	<circle id="Ellipse 5" cx="281.170654" cy="165.500000" r="3.500000" fill="#FFFFFF" fill-opacity="1.000000"/>
	<circle id="Ellipse 3" cx="259.170654" cy="123.500000" r="5.500000" fill="#FFFFFF" fill-opacity="1.000000"/>
	<circle id="Ellipse 9" cx="300.170654" cy="210.500000" r="5.500000" fill="#FFFFFF" fill-opacity="1.000000"/>
	<circle id="Ellipse 8" cx="237.170654" cy="211.500000" r="5.500000" fill="#FFFFFF" fill-opacity="1.000000"/>
	<circle id="Ellipse 4" cx="321.170654" cy="159.500000" r="5.500000" fill="#FFFFFF" fill-opacity="1.000000"/>
	<path id="Vector" d="M10.8389 52L10.8389 73" stroke="#FFFFFF" stroke-opacity="1.000000" stroke-width="1.340000" stroke-linecap="round"/>
	<path id="Vector" d="M14.5056 52.5071L10.8387 56.174L7.17188 52.5071" stroke="#FFFFFF" stroke-opacity="1.000000" stroke-width="1.340000" stroke-linecap="round"/>
	<path id="Vector" d="M14.5056 72.2394L10.8387 68.5725L7.17188 72.2394" stroke="#FFFFFF" stroke-opacity="1.000000" stroke-width="1.340000" stroke-linecap="round"/>
	<path id="Vector" d="M19.6482 56.7852L2.02905 68.2148" stroke="#FFFFFF" stroke-opacity="1.000000" stroke-width="1.340000" stroke-linecap="round"/>
	<path id="Vector" d="M21.2155 60.1399L16.1443 59.0607L17.2235 53.9829" stroke="#FFFFFF" stroke-opacity="1.000000" stroke-width="1.340000" stroke-linecap="round"/>
	<path id="Vector" d="M4.6626 70.874L5.74182 65.8027L0.670654 64.7235" stroke="#FFFFFF" stroke-opacity="1.000000" stroke-width="1.340000" stroke-linecap="round"/>
	<path id="Vector" d="M2.24402 56.7852L19.8567 68.2148" stroke="#FFFFFF" stroke-opacity="1.000000" stroke-width="1.340000" stroke-linecap="round"/>
	<path id="Vector" d="M0.670654 60.1399L5.74182 59.0607L4.6626 53.9829" stroke="#FFFFFF" stroke-opacity="1.000000" stroke-width="1.340000" stroke-linecap="round"/>
	<path id="Vector" d="M17.2235 70.874L16.1443 65.8027L21.2155 64.7235" stroke="#FFFFFF" stroke-opacity="1.000000" stroke-width="1.340000" stroke-linecap="round"/>
	<path id="Vector" d="M113.508 94L113.508 126.709" stroke="#FFFFFF" stroke-opacity="1.000000" stroke-width="1.340000" stroke-linecap="round"/>
	<path id="Vector" d="M119.219 94.7898L113.508 100.501L107.797 94.7898" stroke="#FFFFFF" stroke-opacity="1.000000" stroke-width="1.340000" stroke-linecap="round"/>
	<path id="Vector" d="M119.219 125.524L113.508 119.813L107.797 125.524" stroke="#FFFFFF" stroke-opacity="1.000000" stroke-width="1.340000" stroke-linecap="round"/>
	<path id="Vector" d="M127.23 101.453L99.7869 119.256" stroke="#FFFFFF" stroke-opacity="1.000000" stroke-width="1.340000" stroke-linecap="round"/>
	<path id="Vector" d="M129.67 106.679L121.771 104.998L123.452 97.0886" stroke="#FFFFFF" stroke-opacity="1.000000" stroke-width="1.340000" stroke-linecap="round"/>
	<path id="Vector" d="M103.888 123.398L105.569 115.499L97.6707 113.818" stroke="#FFFFFF" stroke-opacity="1.000000" stroke-width="1.340000" stroke-linecap="round"/>
	<path id="Vector" d="M100.121 101.453L127.554 119.256" stroke="#FFFFFF" stroke-opacity="1.000000" stroke-width="1.340000" stroke-linecap="round"/>
	<path id="Vector" d="M97.6707 106.679L105.569 104.998L103.888 97.0886" stroke="#FFFFFF" stroke-opacity="1.000000" stroke-width="1.340000" stroke-linecap="round"/>
	<path id="Vector" d="M123.452 123.398L121.771 115.499L129.67 113.818" stroke="#FFFFFF" stroke-opacity="1.000000" stroke-width="1.340000" stroke-linecap="round"/>
</svg>
