<svg width="24.000000" height="24.000000" viewBox="0 0 24 24" fill="none" xmlns="http://www.w3.org/2000/svg" xmlns:xlink="http://www.w3.org/1999/xlink">
	<desc>
			Created with Pixso.
	</desc>
	<defs>
		<clipPath id="clip198_2384">
			<rect id="mail" width="24.000000" height="24.000000" fill="white" fill-opacity="0"/>
		</clipPath>
	</defs>
	<g clip-path="url(#clip198_2384)">
		<path id="Vector" d="M5.11627 7C4.89984 7 4.6998 7.07141 4.52908 7.19171L11.4419 13.518C11.8027 13.8483 12.1851 13.8482 12.5465 13.518L19.4709 7.19171C19.3002 7.07141 19.1002 7 18.8837 7L5.11627 7ZM4.06396 7.84616C4.02301 7.97852 4 8.12054 4 8.26923L4 16.7308C4 17.4339 4.49786 18 5.11627 18L18.8837 18C19.5021 18 20 17.4339 20 16.7308L20 8.26923C20 8.12054 19.977 7.97852 19.936 7.84616L13.0116 14.1791C12.4117 14.7272 11.5766 14.728 10.9767 14.1791L4.06396 7.84616Z" fill="#99B35B" fill-opacity="1.000000" fill-rule="nonzero"/>
	</g>
</svg>
