<svg width="26.000000" height="26.000000" viewBox="0 0 26 26" fill="none" xmlns="http://www.w3.org/2000/svg" xmlns:xlink="http://www.w3.org/1999/xlink">
	<desc>
			Created with Pixso.
	</desc>
	<defs>
		<clipPath id="clip196_1480">
			<rect id="про-во" width="26.000000" height="26.000000" fill="white" fill-opacity="0"/>
		</clipPath>
	</defs>
	<g clip-path="url(#clip196_1480)">
		<path id="Vector" d="M19.1809 18.6984L18.5217 6L15.1957 6L14.7595 18.6984L13.7471 18.6984L13.9489 13.1203L12.3096 13.1203L12.3096 10.7031L8.05957 13.1203L8.05957 10.7031L3.60718 13.1203L3.60718 18.6984L3 18.6984L3 20L20 20L20 18.6984L19.1809 18.6984ZM10.2858 15.5375L11.7024 15.5375L11.7024 16.8391L10.2858 16.8391L10.2858 15.5375ZM7.85718 15.5375L9.2738 15.5375L9.2738 16.8391L7.85718 16.8391L7.85718 15.5375ZM5.42859 15.5375L6.84521 15.5375L6.84521 16.8391L5.42859 16.8391L5.42859 15.5375Z" fill="#99B35B" fill-opacity="1.000000" fill-rule="nonzero"/>
	</g>
</svg>
