<svg width="26.000000" height="26.000000" viewBox="0 0 26 26" fill="none" xmlns="http://www.w3.org/2000/svg" xmlns:xlink="http://www.w3.org/1999/xlink">
	<desc>
			Created with Pixso.
	</desc>
	<defs>
		<clipPath id="clip196_1463">
			<rect id="химчистка" width="26.000000" height="26.000000" fill="white" fill-opacity="0"/>
		</clipPath>
	</defs>
	<g clip-path="url(#clip196_1463)">
		<path id="Vector" d="M16.8743 18.6791L9.50806 18.6791C9.43042 18.6791 9.36768 18.7465 9.36768 18.8296C9.36768 18.9127 9.43042 18.9801 9.50806 18.9801L16.8743 18.9801C16.9517 18.9801 17.0146 18.9127 17.0146 18.8296C17.0146 18.7465 16.9517 18.6791 16.8743 18.6791Z" fill="#99B35B" fill-opacity="1.000000" fill-rule="nonzero"/>
		<path id="Vector" d="M9.50806 18.6791C9.43042 18.6791 9.36768 18.7465 9.36768 18.8296C9.36768 18.9127 9.43042 18.9801 9.50806 18.9801L16.8743 18.9801C16.9517 18.9801 17.0146 18.9127 17.0146 18.8296C17.0146 18.7465 16.9517 18.6791 16.8743 18.6791L9.50806 18.6791Z" stroke="#99B35B" stroke-opacity="1.000000" stroke-width="0.500000"/>
		<path id="Vector" d="M16.8743 19.8954L9.50806 19.8954C9.43042 19.8954 9.36768 19.9628 9.36768 20.0459C9.36768 20.129 9.43042 20.1964 9.50806 20.1964L16.8743 20.1964C16.9517 20.1964 17.0146 20.129 17.0146 20.0459C17.0146 19.9628 16.9517 19.8954 16.8743 19.8954Z" fill="#99B35B" fill-opacity="1.000000" fill-rule="nonzero"/>
		<path id="Vector" d="M9.50806 19.8954C9.43042 19.8954 9.36768 19.9628 9.36768 20.0459C9.36768 20.129 9.43042 20.1964 9.50806 20.1964L16.8743 20.1964C16.9517 20.1964 17.0146 20.129 17.0146 20.0459C17.0146 19.9628 16.9517 19.8954 16.8743 19.8954L9.50806 19.8954Z" stroke="#99B35B" stroke-opacity="1.000000" stroke-width="0.500000"/>
		<path id="Vector" d="M21.6355 6.93678C21.5605 6.91522 21.4836 6.96291 21.4636 7.04324L20.6531 10.2886C20.6414 10.2942 20.6296 10.3009 20.6194 10.3103C19.6973 11.1362 18.8999 10.5613 18.3931 9.9335C17.8049 9.20496 17.366 8.90131 16.925 8.9191C16.5049 8.93578 16.093 9.25391 15.6296 9.92026C15.1057 10.5685 14.7346 10.8389 14.3889 10.8249C14.0588 10.8113 13.7141 10.5281 13.304 9.93372C12.8394 9.25981 12.4265 8.93781 12.0046 8.92035C11.564 8.90228 11.1252 9.20506 10.5369 9.93346C10.5347 9.93625 10.5325 9.93913 10.5305 9.94208C10.1206 10.5322 9.77637 10.8131 9.44653 10.8261C9.10083 10.8393 8.72729 10.5677 8.20117 9.91611C7.75269 9.35999 7.27783 9.06017 6.78955 9.0251C6.39355 8.99661 6.00464 9.14433 5.6311 9.4633L4.9187 6.61157C4.89868 6.53128 4.82178 6.48372 4.74683 6.50513C4.67212 6.52666 4.62769 6.60916 4.64771 6.68947L7.37427 17.6054C7.39087 17.6712 7.44629 17.717 7.51001 17.717L18.9807 17.717C19.0444 17.717 19.0999 17.6712 19.1162 17.6054L21.7346 7.12112C21.7546 7.04083 21.7102 6.95831 21.6355 6.93678ZM9.94897 15.4035C9.26172 15.4035 8.70264 14.8034 8.70264 14.0659C8.70264 13.3282 9.26172 12.7281 9.94897 12.7281C10.6365 12.7281 11.1958 13.3282 11.1958 14.0659C11.1958 14.8034 10.6365 15.4035 9.94897 15.4035ZM13.1633 15.4035C12.4761 15.4035 11.917 14.8034 11.917 14.0659C11.917 13.3282 12.4761 12.7281 13.1633 12.7281C13.8508 12.7281 14.4102 13.3282 14.4102 14.0659C14.4102 14.8034 13.8508 15.4035 13.1633 15.4035ZM16.3784 15.4035C15.6909 15.4035 15.1313 14.8034 15.1313 14.0659C15.1313 13.3282 15.6909 12.7281 16.3784 12.7281C17.0662 12.7281 17.6255 13.3282 17.6255 14.0659C17.6255 14.8034 17.0662 15.4035 16.3784 15.4035Z" fill="#99B35B" fill-opacity="1.000000" fill-rule="nonzero"/>
	</g>
</svg>
