<svg width="26.000000" height="26.000000" viewBox="0 0 26 26" fill="none" xmlns="http://www.w3.org/2000/svg" xmlns:xlink="http://www.w3.org/1999/xlink">
	<desc>
			Created with Pixso.
	</desc>
	<defs>
		<clipPath id="clip196_1471">
			<rect id="клининг" width="26.000000" height="26.000000" fill="white" fill-opacity="0"/>
		</clipPath>
	</defs>
	<g clip-path="url(#clip196_1471)">
		<path id="Vector" d="M8 15.5582L8 21.4305C8 21.8065 8.17261 22.1671 8.47949 22.433C8.78662 22.6988 9.20312 22.8482 9.63745 22.8482L16.1868 22.8482C16.6211 22.8482 17.0376 22.6988 17.3447 22.433C17.6516 22.1671 17.8242 21.8065 17.8242 21.4305L17.8242 17.5317C17.825 16.2439 17.2791 15.0006 16.2903 14.0384C15.1685 12.9463 14.5488 11.5354 14.5496 10.0738L14.5496 9.02534C14.5496 8.93135 14.5063 8.84119 14.4294 8.77472C14.3528 8.70825 14.2488 8.67091 14.1401 8.67091L11.6841 8.67091C11.5171 8.67133 11.3535 8.71265 11.2126 8.79012C11.0715 8.86757 10.9587 8.978 10.887 9.10864L8.55908 13.3923C8.19214 14.0702 8.00122 14.8095 8 15.5582ZM9.22803 16.8229C9.22876 16.353 9.44458 15.9026 9.82812 15.5704C10.2119 15.2381 10.7322 15.0513 11.2747 15.0507L14.5496 15.0507C15.092 15.0513 15.6123 15.2381 15.9961 15.5704C16.3796 15.9026 16.5955 16.353 16.5962 16.8229L16.5962 20.7216C16.5962 21.0036 16.4668 21.2741 16.2366 21.4735C16.0061 21.6729 15.6938 21.7849 15.3682 21.7849L10.4561 21.7849C10.1304 21.7849 9.81812 21.6729 9.58765 21.4735C9.35742 21.2741 9.22803 21.0036 9.22803 20.7216L9.22803 16.8229Z" fill="#99B35B" fill-opacity="1.000000" fill-rule="nonzero"/>
		<path id="Vector" d="M10.4565 21.076L15.3687 21.076C15.4771 21.076 15.5813 21.0387 15.658 20.9722C15.7349 20.9058 15.7778 20.8156 15.7778 20.7216L15.7778 16.8229C15.7778 16.5409 15.6484 16.2704 15.4182 16.071C15.188 15.8716 14.8755 15.7596 14.5498 15.7596L11.2751 15.7596C10.9495 15.7596 10.6372 15.8716 10.4067 16.071C10.1765 16.2704 10.0471 16.5409 10.0471 16.8229L10.0471 20.7216C10.0471 20.8156 10.0903 20.9058 10.167 20.9722C10.2439 21.0387 10.3479 21.076 10.4565 21.076Z" fill="#99B35B" fill-opacity="1.000000" fill-rule="nonzero"/>
		<path id="Vector" d="M9.98535 3.17722L9.28394 4.24051C9.24805 4.29437 9.229 4.35545 9.229 4.41763C9.229 4.47983 9.2478 4.54092 9.28369 4.59479C9.31958 4.64865 9.37134 4.69341 9.43335 4.72455C9.49561 4.75568 9.56616 4.77209 9.63794 4.77216L10.4565 4.77216C10.8909 4.77216 11.3074 4.92152 11.6145 5.18741C11.9214 5.45328 12.094 5.81389 12.094 6.1899L13.7314 6.1899C13.7324 5.53214 14.0344 4.90157 14.5718 4.43648C15.1089 3.97137 15.8372 3.70972 16.5967 3.70886L16.5967 3L10.3408 3C10.2688 2.99988 10.198 3.01619 10.1357 3.04732C10.0732 3.07843 10.0215 3.12323 9.98535 3.17722Z" fill="#99B35B" fill-opacity="1.000000" fill-rule="nonzero"/>
		<path id="Vector" d="M14.9399 5.15706C15.1724 5.20035 15.3914 5.28697 15.5813 5.41092C15.7712 5.53487 15.9277 5.69316 16.0398 5.87479C16.4329 6.56294 17.0178 7.15535 17.7419 7.59839C17.7585 7.60725 17.7759 7.61647 17.8049 7.59024C17.834 7.56401 17.822 7.54877 17.8118 7.53566C17.0815 6.59718 16.5583 5.5498 16.2683 4.44643C15.7341 4.52145 15.2563 4.77707 14.9399 5.15706Z" fill="#99B35B" fill-opacity="1.000000" fill-rule="nonzero"/>
		<path id="Vector" d="M11.6846 6.89874L14.1406 6.89874L14.1406 7.96204L11.6846 7.96204L11.6846 6.89874Z" fill="#99B35B" fill-opacity="1.000000" fill-rule="evenodd"/>
		<path id="Vector" d="M17.4146 3L18.6431 3L18.6431 3.70886L17.4146 3.70886L17.4146 3Z" fill="#99B35B" fill-opacity="1.000000" fill-rule="evenodd"/>
	</g>
</svg>
