<svg width="26.000000" height="26.000000" viewBox="0 0 26 26" fill="none" xmlns="http://www.w3.org/2000/svg" xmlns:xlink="http://www.w3.org/1999/xlink">
	<desc>
			Created with Pixso.
	</desc>
	<defs>
		<clipPath id="clip198_1503">
			<rect id="авто" width="26.000000" height="26.000000" fill="white" fill-opacity="0"/>
		</clipPath>
	</defs>
	<g clip-path="url(#clip198_1503)">
		<path id="Vector" d="M5.66565 11.2351C5.65088 11.1738 5.65039 11.1098 5.66443 11.0483C5.67834 10.9868 5.70642 10.9293 5.74622 10.8803C5.78467 10.8318 5.83374 10.7927 5.88965 10.7661C5.94556 10.7395 6.00684 10.7262 6.06885 10.7271L6.72998 10.7271C6.5481 11.148 6.30042 11.5372 5.99622 11.8802C5.93604 11.8586 5.88232 11.8222 5.84009 11.7742C5.79773 11.7263 5.76831 11.6684 5.75427 11.606L5.66565 11.2351ZM19.849 11.606L19.9376 11.2351C19.9524 11.1738 19.9529 11.1098 19.9388 11.0483C19.9249 10.9868 19.8969 10.9293 19.8571 10.8803C19.8186 10.8318 19.7695 10.7927 19.7136 10.7661C19.6577 10.7395 19.5964 10.7262 19.5344 10.7271L18.8733 10.7271C19.0552 11.148 19.3029 11.5372 19.6071 11.8802C19.6671 11.8587 19.7208 11.8223 19.7631 11.7746C19.8053 11.7268 19.8348 11.6683 19.849 11.606ZM16.3011 16.4222C16.2791 16.4792 16.2402 16.5281 16.1899 16.5626C16.1395 16.5972 16.08 16.6157 16.0189 16.6158L9.58118 16.6158C9.52014 16.6157 9.46045 16.5972 9.41016 16.5626C9.35974 16.5281 9.32104 16.4792 9.29895 16.4222L9.07715 15.8514L5.57446 15.5853L5.57446 17.9817L20.0288 17.9817L20.0288 15.5853L16.5261 15.8514L16.3011 16.4222ZM8.72156 14.945C8.68457 14.8489 8.62195 14.7647 8.54053 14.7016C8.45911 14.6385 8.36194 14.5989 8.25964 14.587L5.57129 14.2645L5.57129 14.9773L8.8313 15.2248L8.72156 14.945ZM17.3413 14.5903C17.2386 14.602 17.1412 14.6417 17.0597 14.7049C16.978 14.7682 16.9154 14.8527 16.8784 14.9491L16.7695 15.2297L20.0288 14.9821L20.0288 14.2677L17.3413 14.5903ZM12.8016 11.4819L17.571 11.4819C17.7114 11.4808 17.85 11.4509 17.9783 11.394C18.1066 11.3371 18.2218 11.2545 18.3169 11.1513L17.559 8.79518C17.4667 8.50433 17.2839 8.25053 17.0374 8.07071C16.7909 7.89088 16.4934 7.79442 16.1882 7.79533L9.41504 7.79533C9.10986 7.79442 8.81238 7.89088 8.56592 8.07071C8.31934 8.25053 8.1366 8.50433 8.04431 8.79518L7.28638 11.1513C7.38147 11.2545 7.4967 11.3371 7.625 11.394C7.7533 11.4509 7.89185 11.4808 8.03223 11.4819L12.8016 11.4819ZM9.28931 14.7257L9.57556 15.4635L9.57556 15.4708L9.78516 16.011L15.8116 16.011L16.0212 15.4716L16.0212 15.4635L16.3075 14.7265C16.3845 14.5281 16.5142 14.3543 16.6825 14.2241C16.851 14.0938 17.0516 14.0119 17.2631 13.9871L19.9772 13.6646C19.9409 13.4335 19.8481 13.2149 19.707 13.0284L18.6418 11.6875C18.3452 11.9465 17.965 12.0897 17.571 12.0907L8.03223 12.0907C7.63831 12.0897 7.25806 11.9465 6.96143 11.6875L5.88977 13.0268C5.74866 13.2133 5.65588 13.4319 5.61963 13.663L8.33459 13.9855C8.5459 14.0105 8.74646 14.0927 8.91467 14.2231C9.08289 14.3535 9.2124 14.5273 9.28931 14.7257ZM12.8016 6.42941C12.9414 6.42952 13.0798 6.40207 13.2091 6.34862C13.3383 6.29517 13.4556 6.21677 13.5544 6.1179C13.6533 6.01906 13.7317 5.90169 13.7852 5.77251C13.8386 5.64331 13.8661 5.50487 13.866 5.36507C13.7209 4.78845 13.4357 4.25664 13.0355 3.81691C13.0057 3.78456 12.9696 3.75873 12.9293 3.74107C12.889 3.7234 12.8456 3.71428 12.8016 3.71428C12.7577 3.71428 12.7142 3.7234 12.674 3.74107C12.6337 3.75873 12.5975 3.78456 12.5677 3.81691C12.1676 4.25664 11.8823 4.78845 11.7373 5.36507C11.7372 5.50487 11.7646 5.64331 11.8181 5.77251C11.8716 5.90169 11.95 6.01906 12.0488 6.1179C12.1476 6.21677 12.265 6.29517 12.3942 6.34862C12.5234 6.40207 12.6619 6.42952 12.8016 6.42941ZM16.027 7.23575C16.1667 7.23586 16.3052 7.20839 16.4343 7.15494C16.5636 7.10149 16.6809 7.0231 16.7798 6.92424C16.8787 6.82538 16.957 6.70801 17.0105 6.57883C17.064 6.44965 17.0914 6.31119 17.0913 6.17139C16.9463 5.59479 16.661 5.06297 16.2607 4.62325C16.2311 4.59088 16.1948 4.56506 16.1547 4.54739C16.1144 4.52972 16.0709 4.52061 16.027 4.52061C15.983 4.52061 15.9395 4.52972 15.8993 4.54739C15.859 4.56506 15.8229 4.59088 15.7931 4.62325C15.3929 5.06297 15.1077 5.59479 14.9626 6.17139C14.9625 6.31119 14.99 6.44965 15.0433 6.57883C15.0968 6.70801 15.1753 6.82538 15.274 6.92424C15.3729 7.0231 15.4904 7.10149 15.6195 7.15494C15.7487 7.20839 15.8871 7.23586 16.027 7.23575ZM9.57629 7.23575C9.71606 7.23586 9.85461 7.20839 9.98376 7.15494C10.1129 7.10149 10.2303 7.0231 10.3292 6.92424C10.428 6.82538 10.5065 6.70801 10.5598 6.57883C10.6133 6.44965 10.6407 6.31119 10.6406 6.17139C10.4956 5.59479 10.2103 5.06297 9.81018 4.62325C9.7804 4.59088 9.74426 4.56506 9.70398 4.54739C9.6637 4.52972 9.62024 4.52061 9.57629 4.52061C9.53235 4.52061 9.48889 4.52972 9.44861 4.54739C9.40845 4.56506 9.37219 4.59088 9.34253 4.62325C8.94226 5.06297 8.65698 5.59479 8.51196 6.17139C8.51184 6.31119 8.53931 6.44965 8.59277 6.57883C8.64624 6.70801 8.72461 6.82538 8.82349 6.92424C8.92236 7.0231 9.03967 7.10149 9.16895 7.15494C9.2981 7.20839 9.43652 7.23586 9.57629 7.23575ZM5.57446 19.2581C5.57446 19.2899 5.58081 19.3213 5.5929 19.3507C5.6051 19.38 5.62292 19.4067 5.64539 19.4291C5.66785 19.4516 5.69446 19.4694 5.72388 19.4816C5.75317 19.4937 5.78467 19.5 5.81641 19.5L8.27332 19.5C8.30505 19.5 8.33655 19.4937 8.36584 19.4816C8.39526 19.4694 8.42188 19.4516 8.44434 19.4291C8.4668 19.4067 8.48462 19.38 8.49683 19.3507C8.50891 19.3213 8.51514 19.2899 8.51514 19.2581L8.51514 18.5864L5.57446 18.5864L5.57446 19.2581ZM17.088 19.2581C17.088 19.2899 17.0944 19.3213 17.1064 19.3507C17.1187 19.38 17.1365 19.4067 17.1589 19.4291C17.1814 19.4516 17.208 19.4694 17.2374 19.4816C17.2667 19.4937 17.2982 19.5 17.33 19.5L19.7869 19.5C19.8186 19.5 19.8501 19.4937 19.8794 19.4816C19.9088 19.4694 19.9354 19.4516 19.9579 19.4291C19.9803 19.4067 19.9982 19.38 20.0104 19.3507C20.0225 19.3213 20.0288 19.2899 20.0288 19.2581L20.0288 18.5864L17.088 18.5864L17.088 19.2581Z" fill="#99B35B" fill-opacity="1.000000" fill-rule="nonzero"/>
	</g>
</svg>
