<svg width="26.000000" height="26.000000" viewBox="0 0 26 26" fill="none" xmlns="http://www.w3.org/2000/svg" xmlns:xlink="http://www.w3.org/1999/xlink">
	<desc>
			Created with Pixso.
	</desc>
	<defs>
		<clipPath id="clip198_1489">
			<rect id="бытовая" width="26.000000" height="26.000000" fill="white" fill-opacity="0"/>
		</clipPath>
	</defs>
	<g clip-path="url(#clip198_1489)">
		<path id="Vector" d="M11.1428 2.78571L14.8572 2.78571L14.8572 4.64285L11.1428 4.64285L11.1428 2.78571Z" fill="#99B35B" fill-opacity="1.000000" fill-rule="evenodd"/>
		<path id="Vector" d="M17.6394 22.166L16.8743 12.8447C16.7766 11.5545 16.8906 10.2644 17.1184 8.97421C17.1348 8.87744 17.1509 8.79681 17.1509 8.70004C17.1509 7.65179 16.0928 6.74869 14.5791 6.37778L14.5791 5.57143L11.4373 5.57143L11.4373 6.37778C9.92358 6.76482 8.84912 7.65179 8.84912 8.70004C8.84912 8.79681 8.86548 8.89357 8.88159 8.97421C9.10962 10.2482 9.23975 11.5384 9.12573 12.8447L8.36084 22.166C8.31201 22.7305 8.76782 23.2143 9.3374 23.2143L16.6626 23.2143C17.2324 23.2143 17.6882 22.7305 17.6394 22.166ZM13 19.5696C11.6165 19.5696 10.4932 17.844 10.4932 15.7153C10.4932 13.5865 11.6165 11.8609 13 11.8609C14.3838 11.8609 15.5068 13.5865 15.5068 15.7153C15.5068 17.844 14.3838 19.5696 13 19.5696Z" fill="#99B35B" fill-opacity="1.000000" fill-rule="nonzero"/>
	</g>
</svg>
