<svg width="26.000000" height="26.000000" viewBox="0 0 26 26" fill="none" xmlns="http://www.w3.org/2000/svg" xmlns:xlink="http://www.w3.org/1999/xlink">
	<desc>
			Created with Pixso.
	</desc>
	<defs>
		<clipPath id="clip196_1457">
			<rect id="спец средства" width="26.000000" height="26.000000" fill="white" fill-opacity="0"/>
		</clipPath>
	</defs>
	<g clip-path="url(#clip196_1457)">
		<path id="Vector" d="M14.3794 6.15431L14.0923 6.15431L14.0923 4.58871C14.0923 4.29965 13.7791 4 13.49 4L10.7639 4C10.4749 4 10.1755 4.29965 10.1755 4.58871L10.1755 6.15431L9.87451 6.15431C9.62378 6.15431 9.58789 6.40128 9.58789 6.65236L9.58789 6.72755C9.58789 6.97864 9.62378 7.32939 9.87451 7.32939L14.3794 7.32939C14.6304 7.32939 14.6799 6.97864 14.6799 6.72755L14.6799 6.65236C14.6799 6.40128 14.6304 6.15431 14.3794 6.15431Z" fill="#99B35B" fill-opacity="1.000000" fill-rule="nonzero"/>
		<path id="Vector" d="M15.0801 8.04071L9.62549 8.04071C8.27197 8.04071 8.60522 10.1369 8.54541 11.337C8.43604 13.5378 6.95972 14.6758 7.00073 16.6989C7.03589 18.4355 7.7417 21.75 8.57275 21.75C9.4314 21.75 16.6228 21.75 16.6228 21.75C21.3362 15.6787 15.0801 8.04071 15.0801 8.04071ZM10.6575 12.0632C10.9482 12.0632 11.1838 12.299 11.1838 12.5896C11.1838 12.8801 10.9482 13.1159 10.6575 13.1159C10.3669 13.1159 10.1313 12.8801 10.1313 12.5896C10.1313 12.299 10.3669 12.0632 10.6575 12.0632ZM11.2798 16.807C10.615 16.807 10.0767 16.2684 10.0767 15.6039C10.0767 14.9392 10.6152 14.4007 11.2798 14.4007C11.9443 14.4007 12.4829 14.9392 12.4829 15.6039C12.4829 16.2684 11.9443 16.807 11.2798 16.807ZM12.3528 14.2371C11.8657 14.2371 11.4709 13.8421 11.4709 13.355C11.4709 12.868 11.8657 12.4733 12.3528 12.4733C12.8398 12.4733 13.2346 12.868 13.2346 13.355C13.2346 13.8421 12.8401 14.2371 12.3528 14.2371ZM15.1443 17.7628C16.0198 15.527 14.9263 15.6249 14.9709 14.1194C15.0159 12.6143 16.655 12.6805 17.1958 14.9136C17.4009 15.7577 17.425 16.9823 17.1172 17.9962C16.4202 20.2949 14.6736 18.9645 15.1443 17.7628Z" fill="#99B35B" fill-opacity="1.000000" fill-rule="nonzero"/>
	</g>
</svg>
