<svg width="24.000000" height="24.000000" viewBox="0 0 24 24" fill="none" xmlns="http://www.w3.org/2000/svg" xmlns:xlink="http://www.w3.org/1999/xlink">
	<desc>
			Created with Pixso.
	</desc>
	<defs>
		<clipPath id="clip198_2378">
			<rect id="phone" width="24.000000" height="24.000000" fill="white" fill-opacity="0"/>
		</clipPath>
	</defs>
	<g clip-path="url(#clip198_2378)">
		<path id="Vector" d="M18.4557 19.2554C18.1357 19.7444 17.5798 20.031 16.9902 19.9973C16.4006 19.9636 15.6426 19.8793 15.1204 19.7444C12.7958 19.1373 10.387 17.6871 8.34879 15.6467C6.31058 13.6064 4.86191 11.195 4.25549 8.86792C4.12073 8.34515 4.05334 7.60321 4.00281 7.013C3.96915 6.43967 4.23865 5.88321 4.72717 5.56281L6.79907 4.18005C7.3381 3.82596 8.06244 4.01144 8.34879 4.58478L10.0333 7.83929C10.2691 8.29459 10.1512 8.86792 9.74692 9.18829L8.2309 10.3687C8.83731 11.4985 9.41 12.4091 10.5218 13.5052C11.5493 14.5338 12.4421 15.1409 13.6044 15.7648L14.8004 14.2303C15.1204 13.8256 15.6931 13.6906 16.1479 13.9436L19.4159 15.6299C19.9886 15.9165 20.1739 16.6416 19.8201 17.1812L18.4557 19.2554Z" fill="#99B35B" fill-opacity="1.000000" fill-rule="nonzero"/>
	</g>
</svg>
