<svg fill="none" height="16" viewBox="0 0 16 16" width="16" xmlns="http://www.w3.org/2000/svg" xmlns:xlink="http://www.w3.org/1999/xlink"><clipPath id="a"><path d="m0 0h16v16h-16z"/></clipPath><path d="m0 0h16v16h-16z" fill="none"/><g clip-path="url(#a)" fill="#474747"><path d="m7.04608 0c-3.88513 0-7.04608 3.16098-7.04608 7.04605 0 3.88535 3.16095 7.04605 7.04608 7.04605 3.88532 0 7.04602-3.1607 7.04602-7.04605 0-3.88507-3.1607-7.04605-7.04602-7.04605zm0 12.7914c-3.16791 0-5.74524-2.5774-5.74524-5.74532 0-3.16791 2.57733-5.74527 5.74524-5.74527 3.16792 0 5.74522 2.57733 5.74522 5.74524 0 3.16795-2.5773 5.74535-5.74522 5.74535z"/><path d="m15.808 14.8883-3.729-3.729c-.2541-.2541-.6656-.2541-.9197 0-.2541.2539-.2541.6658 0 .9197l3.729 3.729c.1271.127.2933.1906.4598.1906.1664 0 .3329-.0636.4599-.1906.2541-.2539.2541-.6658 0-.9197z"/></g></svg>