<svg width="40.000000" height="40.000000" viewBox="0 0 40 40" fill="none" xmlns="http://www.w3.org/2000/svg" xmlns:xlink="http://www.w3.org/1999/xlink">
	<desc>
			Created with Pixso.
	</desc>
	<defs/>
	<rect id="Rectangle 1" rx="20.000000" width="40.000000" height="40.000000" fill="#0077FF" fill-opacity="1.000000"/>
	<path id="Vector" d="M20.9824 27C13.4661 27 9.17871 21.7446 9 13L12.7651 13C12.8889 19.4185 15.6646 22.1372 17.8633 22.6978L17.8633 13L21.4084 13L21.4084 18.5356C23.5796 18.2974 25.8606 15.7747 26.6301 13L30.1755 13C29.8855 14.439 29.3076 15.8018 28.4775 17.0024C27.6477 18.2034 26.5837 19.2166 25.3523 19.979C26.7268 20.6755 27.9409 21.6616 28.9146 22.8718C29.8879 24.082 30.5989 25.489 31 27L27.0974 27C26.7373 25.6875 26.0054 24.5127 24.9934 23.6228C23.9814 22.7329 22.7344 22.1672 21.4084 21.9971L21.4084 27L20.9824 27Z" fill="#FFFFFF" fill-opacity="1.000000" fill-rule="nonzero"/>
</svg>
