<svg width="40.000000" height="40.000000" viewBox="0 0 40 40" fill="none" xmlns="http://www.w3.org/2000/svg" xmlns:xlink="http://www.w3.org/1999/xlink">
	<desc>
			Created with Pixso.
	</desc>
	<defs/>
	<rect id="Rectangle 1" rx="20.000000" width="40.000000" height="40.000000" fill="#F40000" fill-opacity="1.000000"/>
	<path id="Vector" d="M11.2625 27.0569C10.8701 26.9407 10.5122 26.7344 10.219 26.4548C9.92554 26.1755 9.70532 25.8313 9.5769 25.4512C8.84302 23.4873 8.62549 15.2869 10.0391 13.668C10.5095 13.1414 11.1738 12.8171 11.8877 12.7659C15.6802 12.3677 27.3975 12.4207 28.7432 12.8984C29.1216 13.0183 29.4675 13.2202 29.7546 13.489C30.042 13.7581 30.2629 14.0869 30.4016 14.4509C31.2036 16.4812 31.2307 23.8589 30.2927 25.8096C30.0439 26.3171 29.6274 26.7285 29.1101 26.9773C27.6965 27.6672 13.1384 27.6541 11.2625 27.0569ZM17.2842 23.2087L24.0808 19.7588L17.2842 16.2822L17.2842 23.2087Z" fill="#FFFFFF" fill-opacity="1.000000" fill-rule="evenodd"/>
</svg>
