<svg width="84" height="84" viewBox="0 0 84 84" fill="none" xmlns="http://www.w3.org/2000/svg">
<rect x="0.5" y="0.5" width="83" height="83" rx="13.5" stroke="#99B35B"/>
<path d="M22 49.8018V56.1122C22 56.8225 22.576 57.3922 23.28 57.3922H60.72C61.4304 57.3922 62 56.8225 62 56.1122V49.8018H22ZM38.063 54.8353H24.5623V52.3609H38.063V54.8353ZM48.8757 54.8353H47.5549V52.3609H48.8757V54.8353ZM51.5174 54.8353H50.1966V52.3609H51.5174V54.8353ZM54.159 54.8353H52.8382V52.3609H54.159V54.8353ZM56.8007 54.8353H55.4798V52.3609H56.8007V54.8353ZM59.4423 54.8353H58.1215V52.3609H59.4423V54.8353Z" fill="#99B35B"/>
<path d="M61.2832 48.5216H22.7168L27.8496 39.344C28.1888 38.7424 28.8288 38.3648 29.5264 38.3648H36.8416V26H47.1584V38.3648H54.4736C55.1712 38.3648 55.8112 38.7424 56.1504 39.344L61.2832 48.5216Z" fill="#99B35B"/>
</svg>
