<svg width="84" height="84" viewBox="0 0 84 84" fill="none" xmlns="http://www.w3.org/2000/svg">
<rect x="0.5" y="0.5" width="83" height="83" rx="13.5" stroke="#99B35B"/>
<path fill-rule="evenodd" clip-rule="evenodd" d="M27.2135 58.0723H26.571C26.2162 58.0723 25.9286 57.7842 25.9286 57.4291V44.8779C24.7686 44.1356 24 42.8357 24 41.3569C24 39.0511 25.8725 37.1783 28.1784 37.1783C30.4844 37.1783 32.3569 39.0511 32.3569 41.3569V48.7964H51.6431V41.3569C51.6431 39.0511 53.5156 37.1783 55.8216 37.1783C58.1275 37.1783 60 39.0511 60 41.3569C60 42.8357 59.2314 44.1356 58.0714 44.8779V57.4291C58.0714 57.7842 57.7838 58.0723 57.429 58.0723H56.7865V59.3578C56.7865 59.7129 56.4976 60.0002 56.1428 60.0002H53.2505C53.0359 60.0002 52.8339 59.8934 52.7147 59.7146L51.6207 58.0723H32.3793L31.2853 59.7146C31.1661 59.8934 30.9641 60.0002 30.7495 60.0002H27.8572C27.5024 60.0002 27.2135 59.7129 27.2135 59.3578V58.0723ZM53.1664 58.0723L53.5942 58.7146H55.5003V58.0723H53.1664ZM28.4997 58.0723V58.7146H30.4058L30.8336 58.0723H28.4997ZM28.4997 36.5461V26.5711C28.4997 25.1508 29.6512 24 31.0707 24H52.9293C54.3488 24 55.5003 25.1508 55.5003 26.5711V36.5461C52.9882 36.7122 51.0007 38.8045 51.0007 41.3569V48.1532H32.9993V41.3569C32.9993 38.8045 31.0118 36.7122 28.4997 36.5461Z" fill="#99B35B"/>
</svg>
