<svg width="84" height="84" viewBox="0 0 84 84" fill="none" xmlns="http://www.w3.org/2000/svg">
<rect x="0.5" y="0.5" width="83" height="83" rx="13.5" stroke="#99B35B"/>
<path fill-rule="evenodd" clip-rule="evenodd" d="M21 37.9792H40.7708V54.5H21V37.9792ZM33.0521 40.1459H38.7396V42.1771H33.0521V40.1459Z" fill="#99B35B"/>
<path fill-rule="evenodd" clip-rule="evenodd" d="M42.8027 37.9792H62.5736V54.5H42.8027V37.9792ZM44.9694 40.1459H50.5215V42.1771H44.9694V40.1459Z" fill="#99B35B"/>
<path fill-rule="evenodd" clip-rule="evenodd" d="M22.8965 56.9375H60.8132V61H22.8965V56.9375Z" fill="#99B35B"/>
<path fill-rule="evenodd" clip-rule="evenodd" d="M36.5723 31.4792H40.2285V26.1979C40.2285 25.1146 40.7702 24.0312 41.5827 23.2188C42.2598 22.4062 43.3431 22 44.5618 22C45.7806 22 46.7285 22.4062 47.541 23.2188C48.3535 24.0312 48.8952 25.1146 48.8952 26.1979V27.8229H47.1348V26.1979C47.1348 25.5208 46.8639 24.8438 46.3223 24.4375C45.916 23.8958 45.2389 23.625 44.5618 23.625C43.8848 23.625 43.2077 23.8958 42.666 24.4375C42.2598 24.8438 41.9889 25.5208 41.9889 26.1979V31.4792H47.2702V35.4063H36.5723V31.4792Z" fill="#99B35B"/>
<path fill-rule="evenodd" clip-rule="evenodd" d="M49.4375 29.1771C49.7083 29.1771 49.8438 29.3125 49.8438 29.5833C49.8438 29.8541 49.7083 29.9896 49.4375 29.9896C49.1667 29.9896 49.0312 29.8541 49.0312 29.5833C49.0312 29.3125 49.1667 29.1771 49.4375 29.1771Z" fill="#99B35B"/>
<path fill-rule="evenodd" clip-rule="evenodd" d="M51.0618 30.8021C51.1973 30.8021 51.3327 30.9375 51.3327 31.0729C51.3327 31.2083 51.1973 31.2083 51.0618 31.2083C50.9264 31.2083 50.791 31.2083 50.791 31.0729C50.791 30.9375 50.9264 30.8021 51.0618 30.8021Z" fill="#99B35B"/>
<path fill-rule="evenodd" clip-rule="evenodd" d="M47.4062 29.3125C47.6771 29.3125 47.8125 29.5833 47.8125 29.7188C47.8125 29.9896 47.6771 30.2604 47.4062 30.2604C47.1354 30.2604 47 29.9896 47 29.7188C47 29.5833 47.1354 29.3125 47.4062 29.3125Z" fill="#99B35B"/>
<path fill-rule="evenodd" clip-rule="evenodd" d="M48.3535 30.6667C48.4889 30.6667 48.7598 30.8021 48.7598 31.0729C48.7598 31.3438 48.4889 31.4792 48.3535 31.4792C48.0827 31.4792 47.9473 31.3438 47.9473 31.0729C47.9473 30.8021 48.0827 30.6667 48.3535 30.6667Z" fill="#99B35B"/>
<path fill-rule="evenodd" clip-rule="evenodd" d="M49.709 31.6146C49.9798 31.6146 50.2507 31.75 50.2507 32.0208C50.2507 32.1562 49.9798 32.4271 49.709 32.4271C49.5736 32.4271 49.3027 32.1562 49.3027 32.0208C49.3027 31.75 49.5736 31.6146 49.709 31.6146Z" fill="#99B35B"/>
</svg>
