<svg width="84" height="84" viewBox="0 0 84 84" fill="none" xmlns="http://www.w3.org/2000/svg">
<rect x="0.5" y="0.5" width="83" height="83" rx="13.5" stroke="#99B35B"/>
<path d="M56.5158 40.5653V26.7903H57.4405V23H27.1921V26.7903H28.1168V40.5653H25V42.4348H59.633V40.5653H56.5158ZM54.1453 24.8585C54.2837 24.8585 54.396 24.9704 54.396 25.1089C54.396 25.2473 54.2837 25.3596 54.1453 25.3596C54.0077 25.3596 53.895 25.2473 53.895 25.1089C53.895 24.9704 54.0077 24.8585 54.1453 24.8585ZM51.116 24.1283H53.0839V26.0966H51.116V24.1283ZM48.0375 24.1283H50.0054V26.0966H48.0375V24.1283ZM39.2147 39.2335C38.5256 39.9141 37.5753 40.3352 36.5257 40.3352C35.4757 40.3352 34.5254 39.9146 33.8371 39.2335C33.1485 38.5528 32.7215 37.6122 32.7215 36.5735C32.7215 35.5349 33.1485 34.5947 33.8371 33.9136C34.5254 33.2338 35.4761 32.8131 36.5257 32.8131C37.5753 32.8131 38.5256 33.2338 39.2147 33.9136C39.9033 34.5951 40.3294 35.5349 40.3294 36.5735C40.3299 37.6118 39.9037 38.5528 39.2147 39.2335ZM40.1595 33.694L40.4906 33.5905L40.5865 33.1837L40.674 33.5804L41.0139 33.694L40.682 33.7988L40.5861 34.2043L40.4994 33.8089L40.1595 33.694ZM51.3924 39.2335C50.7037 39.9141 49.7534 40.3352 48.7034 40.3352C47.6543 40.3352 46.7031 39.9146 46.0145 39.2335C45.3258 38.5528 44.8997 37.6122 44.8997 36.5735C44.8997 35.5349 45.3262 34.5947 46.0145 33.9136C46.7031 33.2338 47.6538 32.8131 48.7034 32.8131C49.7534 32.8131 50.7037 33.2338 51.3924 33.9136C52.0815 34.5951 52.5072 35.5349 52.5072 36.5735C52.5076 37.6118 52.0815 38.5528 51.3924 39.2335ZM55.0371 40.5653H52.7495C53.7814 39.5435 54.42 38.1326 54.42 36.5735C54.42 33.453 51.8602 30.9239 48.7034 30.9239C45.5467 30.9239 42.9869 33.453 42.9869 36.5735C42.9869 38.1326 43.6254 39.5435 44.6574 40.5653H40.5713C41.6041 39.5435 42.2418 38.1326 42.2418 36.5735C42.2418 34.914 41.5174 33.4197 40.3635 32.3866L39.746 32.5796L39.5445 33.4349L39.3615 32.6015L38.6442 32.3609L39.343 32.1421L39.4435 31.7147C38.5895 31.2124 37.5921 30.9239 36.5257 30.9239C33.3685 30.9239 30.8091 33.453 30.8091 36.5735C30.8091 38.1326 31.4473 39.5435 32.4796 40.5653H29.5652V28.8369C29.5652 28.4583 29.8752 28.1487 30.2538 28.1487H54.3476C54.7263 28.1487 55.0367 28.4583 55.0367 28.8369L55.0371 40.5653ZM55.4031 25.3596C55.2647 25.3596 55.1524 25.2473 55.1524 25.1089C55.1524 24.9704 55.2647 24.8585 55.4031 24.8585C55.5415 24.8585 55.6534 24.9704 55.6534 25.1089C55.6534 25.2473 55.5419 25.3596 55.4031 25.3596Z" fill="#99B35B"/>
<path d="M27.3474 58.6199C27.2805 58.7394 27.2422 58.877 27.2422 59.0225V60.6497C27.2422 61.1044 27.6141 61.4763 28.0688 61.4763H29.0078V61.69C29.0078 61.8604 29.147 62.0001 29.3178 62.0001H30.3186C30.489 62.0001 30.6286 61.8604 30.6286 61.69V61.4763H54.0136V61.69C54.0136 61.8604 54.1533 62.0001 54.3237 62.0001H55.3249C55.4952 62.0001 55.6345 61.8604 55.6345 61.69V61.4763H56.6424C57.0972 61.4763 57.4695 61.1044 57.4695 60.6497V59.0225C57.4695 58.877 57.4308 58.7394 57.3639 58.6199H27.3474Z" fill="#99B35B"/>
<path d="M55.0366 42.8314H29.5651H28.1167H25.2969L27.4655 57.9959H28.1167H56.5153H57.2447L59.3363 42.8314H56.5153H55.0366Z" fill="#99B35B"/>
<path d="M36.5264 33.0718C35.5466 33.0718 34.6594 33.4639 34.0183 34.0979C33.3772 34.7318 32.9805 35.6068 32.9805 36.574C32.9805 37.5415 33.3772 38.4174 34.0183 39.0509C34.6594 39.6849 35.5466 40.0769 36.5264 40.0769C37.5057 40.0769 38.3925 39.6849 39.034 39.0509C39.6751 38.4174 40.0718 37.5419 40.0718 36.574C40.0718 35.6068 39.6751 34.7318 39.034 34.0979C38.392 33.4639 37.5057 33.0718 36.5264 33.0718ZM36.5264 39.5309C34.8744 39.5309 33.5349 38.2066 33.5349 36.574C33.5349 34.9417 34.8748 33.6179 36.5264 33.6179C38.1779 33.6179 39.5174 34.9413 39.5174 36.574C39.5174 38.2066 38.1779 39.5309 36.5264 39.5309Z" fill="#99B35B"/>
<path d="M39.7276 32.1204L40.266 32.3008C40.078 32.1393 39.8782 31.9904 39.6699 31.8541L39.7276 32.1204Z" fill="#99B35B"/>
<path d="M48.7037 33.0718C47.7239 33.0718 46.8371 33.4639 46.1956 34.0979C45.5545 34.7318 45.1582 35.6068 45.1582 36.574C45.1582 37.5415 45.5541 38.4174 46.1956 39.0509C46.8371 39.6849 47.7239 40.0769 48.7037 40.0769C49.6834 40.0769 50.5702 39.6849 51.2117 39.0509C51.8528 38.4174 52.2491 37.5419 52.2491 36.574C52.2491 35.6068 51.8533 34.7318 51.2117 34.0979C50.5698 33.4639 49.6834 33.0718 48.7037 33.0718ZM48.7037 39.5309C47.0517 39.5309 45.7131 38.2066 45.7131 36.574C45.7131 34.9417 47.0521 33.6179 48.7037 33.6179C50.3561 33.6179 51.6947 34.9413 51.6947 36.574C51.6947 38.2066 50.3557 39.5309 48.7037 39.5309Z" fill="#99B35B"/>
</svg>
