<svg width="20" height="20" viewBox="0 0 20 20" fill="none" xmlns="http://www.w3.org/2000/svg">
<path fill-rule="evenodd" clip-rule="evenodd" d="M14.5263 7.26673C14.6054 7.18328 14.7 7.11672 14.8045 7.07093C14.9091 7.02514 15.0216 7.00104 15.1354 7.00003C15.2492 6.99903 15.3621 7.02113 15.4674 7.06506C15.5728 7.10899 15.6685 7.17386 15.7489 7.2559C15.8294 7.33793 15.8931 7.43548 15.9362 7.54285C15.9793 7.65022 16.001 7.76527 16 7.88127C15.999 7.99728 15.9753 8.11192 15.9304 8.21852C15.8855 8.32511 15.8202 8.42152 15.7383 8.50211L10.5955 13.7442C10.4347 13.908 10.2168 14 9.98947 14C9.76218 14 9.54421 13.908 9.38347 13.7442L4.24061 8.50211C4.08447 8.33733 3.99808 8.11664 4.00003 7.88756C4.00198 7.65849 4.09213 7.43936 4.25105 7.27737C4.40997 7.11538 4.62496 7.0235 4.8497 7.02151C5.07444 7.01952 5.29095 7.10758 5.45261 7.26673L9.98947 11.8911L14.5263 7.26673Z" fill="#999999"/>
</svg>
