<svg fill="none" height="30" viewBox="0 0 50 30" width="50" xmlns="http://www.w3.org/2000/svg"><path clip-rule="evenodd" d="m35.428 21.1811c.4082.1549.6032.1686.9745 0 2.6129-6.5688 5.0816-13.53391 7.7037-20.05296.2012-.393194.4641-.711495.789-.954903 1.5694-.1839641 3.1472-.2214121 4.7335-.1123417.1869.0763567.3106.2261447.3713.4493667-3.9447 9.661338-7.6573 18.929538-12.0196 28.703338-.2228.2151-.4118.674-.7889.674-.9282 0-1.8225.0262-2.7845 0-.4073-.1065-.7321-.3686-.9746-.7864-.9624-2.255-1.9214-4.5018-2.8772-6.7405-.1225-.2232-.2926-.3543-.5105-.3932-1.5074-.0925-3.0079-.0739-4.5016.0562.842 2.5259 1.8165 4.9974 2.9237 7.4146-.04.2545-.1637.423-.3712.5055-1.516.0749-3.2177.0749-4.7336 0-.3842-.3152-.5234-.7084-.789-1.1796-.7881-2.1326-1.6235-4.2295-2.506-6.2911-.193-.1824-.3941-.3509-.6033-.5056-2.6916-.0374-5.3833-.0749-8.0749-.1123-.103-.3075-.1185-.6259-.0464-.9549.6677-1.4666 1.2865-2.9645 1.8563-4.4937.2799-.4035.6357-.6468 1.0674-.7302.8353-.0374 1.6706-.0749 2.506-.1123.085-.0421.1624-.0982.232-.1686.0619-.262.0619-.5243 0-.7863-.6986-1.7504-1.3792-3.7352-2.0419-5.50479-.3597-.56886-.7929-.45652-1.2994-.11235-2.6369 6.72014-5.29765 13.42324-7.98217 20.10914-.25454.4063-.5794.6871-.97456.8426-1.48505.0749-2.97009.0749-4.455139 0-.213189-.1419-.2905349-.3479-.2320389-.6179 3.8679779-9.3638 7.8057179-18.7834 11.6947079-28.19776.2625-.412837.5874-.712414.9746-.898732 1.021-.1497887 2.0419-.1497887 3.0629 0 .6497.168506.8353.337018 1.0674.898732 2.009 4.81086 3.9277 9.65986 5.9866 14.43596h4.5479c.3713 0 .162-.1881.1857-.3371-1.9312-5.0151-3.9668-9.84963-6.033-14.772909.0473-.178384.1401-.309448.2784-.3931957 1.4851-.0748949 2.9701-.0748949 4.4552 0 .4978.2277727.8846.6209687 1.1601 1.1795847 2.4453 6.74054 5.2285 13.40882 8.0286 19.94062z" fill="#99b35b" fill-rule="evenodd"/></svg>