<svg width="64" height="39" viewBox="0 0 64 39" fill="none" xmlns="http://www.w3.org/2000/svg">
<path d="M31.7 33.4999C35.5 29.9999 37.9 24.9999 37.9 19.4999C37.9 13.8999 35.5 8.89985 31.7 5.49986C28.3 2.49986 23.9 0.599854 19 0.599854C8.5 0.599854 0 9.09986 0 19.4999C0 29.9999 8.5 38.4999 19 38.4999C23.9 38.3999 28.3 36.4999 31.7 33.4999Z" fill="#3362AB"/>
<path d="M31.6992 33.5002C35.4992 30.0002 37.8992 25.0002 37.8992 19.5002C37.8992 13.9002 35.4992 8.90024 31.6992 5.50024" fill="#3362AB"/>
<path d="M31.6992 33.5002C35.4992 30.0002 37.8992 25.0002 37.8992 19.5002C37.8992 13.9002 35.4992 8.90024 31.6992 5.50024" stroke="#3362AB" stroke-width="0.3097"/>
<path d="M44.4008 0.500244C39.5008 0.500244 35.0008 2.40024 31.7008 5.40024C31.0008 6.00024 30.4008 6.70024 29.8008 7.40024H33.6008C34.1008 8.00024 34.6008 8.70024 35.0008 9.40024H28.3008C27.9008 10.0002 27.5008 10.7002 27.2008 11.4002H36.1008C36.4008 12.1002 36.7008 12.7002 36.9008 13.4002H26.4008C26.2008 14.1002 26.0008 14.7002 25.8008 15.4002H37.4008C37.7008 16.7002 37.8008 18.0002 37.8008 19.4002C37.8008 21.5002 37.5008 23.5002 36.8008 25.4002H26.3008C26.5008 26.1002 26.8008 26.8002 27.1008 27.4002H36.0008C35.7008 28.1002 35.3008 28.8002 34.9008 29.4002H28.2008C28.6008 30.1002 29.1008 30.8002 29.6008 31.4002H33.4008C32.8008 32.1002 32.2008 32.8002 31.5008 33.4002C34.9008 36.4002 39.3008 38.3002 44.2008 38.3002C54.7008 38.3002 63.1008 29.8002 63.1008 19.3002C63.4008 9.00025 54.9008 0.500244 44.4008 0.500244Z" fill="#C9191B"/>
<path d="M16.6004 24.1002H14.2004L15.6004 16.7002L12.4004 24.1002H10.3004L9.90039 16.8002L8.50037 24.1002H6.40039L8.20038 14.5002H11.9004L12.1004 20.5002L14.7004 14.5002H18.5004L16.6004 24.1002Z" fill="white"/>
<path d="M43.0004 24.0999C42.4004 24.2999 41.8004 24.3999 41.3004 24.3999C40.1004 24.3999 39.4004 23.7999 39.4004 22.6999C39.4004 22.4999 39.4004 22.1999 39.5004 21.9999L39.6004 21.1999L39.7004 20.5999L40.8004 14.5999H43.1004L42.8004 16.3999H44.0004L43.7004 18.2999H42.5004L41.9004 21.5999C41.9004 21.6999 41.9004 21.8999 41.9004 21.8999C41.9004 22.2999 42.2004 22.4999 42.7004 22.4999C43.0004 22.4999 43.2004 22.4999 43.3004 22.3999L43.0004 24.0999Z" fill="white"/>
<path d="M49.8008 16.4C49.6008 16.3 49.6008 16.3 49.5008 16.3C49.4008 16.3 49.3008 16.3 49.3008 16.3C49.2008 16.3 49.1008 16.3 49.0008 16.3C48.2008 16.3 47.7008 16.6 46.9008 17.6L47.1008 16.4H45.2008L43.8008 24.2H46.2008C47.0008 19.4 47.4008 18.6 48.5008 18.6C48.6008 18.6 48.7008 18.6 48.8008 18.6L49.1008 18.7L49.8008 16.4Z" fill="white"/>
<path d="M33.5992 18.8004C33.5992 19.8004 34.1992 20.5004 35.3992 21.0004C36.3992 21.4004 36.4992 21.5004 36.4992 21.9004C36.4992 22.4004 36.0992 22.6004 35.0992 22.6004C34.3992 22.6004 33.6992 22.5004 32.9992 22.3004L32.6992 24.1004H32.7992L33.1992 24.2004C33.2992 24.2004 33.5992 24.3004 33.7992 24.3004C34.3992 24.3004 34.7992 24.4004 35.0992 24.4004C37.5992 24.4004 38.7992 23.6004 38.7992 21.8004C38.7992 20.7004 38.2992 20.1004 37.0992 19.6004C36.0992 19.2004 35.9992 19.1004 35.9992 18.7004C35.9992 18.3004 36.3992 18.1004 37.1992 18.1004C37.6992 18.1004 38.2992 18.1004 38.8992 18.2004L39.1992 16.4004C38.5992 16.3004 37.6992 16.2004 37.0992 16.2004C34.4992 16.2004 33.5992 17.4004 33.5992 18.8004Z" fill="white"/>
<path d="M22.6008 20.7004C22.3008 20.7004 22.2008 20.7004 22.1008 20.7004C20.8008 20.7004 20.1008 21.1004 20.1008 21.9004C20.1008 22.4004 20.4008 22.7004 20.9008 22.7004C21.8008 22.6004 22.5008 21.8004 22.6008 20.7004ZM24.3008 24.1004H22.3008L22.4008 23.3004C21.8008 23.9004 21.0008 24.2004 19.9008 24.2004C18.6008 24.2004 17.8008 23.3004 17.8008 22.1004C17.8008 20.2004 19.3008 19.1004 21.9008 19.1004C22.2008 19.1004 22.5008 19.1004 22.9008 19.2004C23.0008 18.9004 23.0008 18.8004 23.0008 18.7004C23.0008 18.2004 22.6008 18.0004 21.5008 18.0004C20.8008 18.0004 20.1008 18.1004 19.6008 18.2004L19.3008 18.3004L19.1008 18.4004L19.4008 16.6004C20.6008 16.3004 21.3008 16.2004 22.2008 16.2004C24.2008 16.2004 25.3008 17.0004 25.3008 18.5004C25.3008 18.9004 25.3008 19.2004 25.1008 20.0004L24.6008 22.8004L24.5008 23.3004L24.4008 23.7004V24.0004L24.3008 24.1004Z" fill="white"/>
<path d="M30.7996 19.2999C30.7996 19.0999 30.7996 18.9999 30.7996 18.8999C30.7996 18.2999 30.3996 17.8999 29.6996 17.8999C28.8996 17.8999 28.3996 18.3999 28.1996 19.2999H30.7996ZM31.9996 23.9999C31.1996 24.1999 30.3996 24.2999 29.5996 24.2999C26.9996 24.2999 25.5996 23.0999 25.5996 20.7999C25.5996 18.0999 27.2996 16.0999 29.6996 16.0999C31.5996 16.0999 32.8996 17.1999 32.8996 18.8999C32.8996 19.4999 32.7996 19.9999 32.5996 20.7999H27.8996C27.8996 20.8999 27.8996 20.9999 27.8996 20.9999C27.8996 21.8999 28.5996 22.3999 29.9996 22.3999C30.7996 22.3999 31.5996 22.1999 32.4996 21.8999L31.9996 23.9999Z" fill="white"/>
<path d="M54.7004 19.6004C54.7004 18.8004 54.4004 18.0004 53.4004 18.0004C52.2004 18.0004 51.5004 19.4004 51.5004 20.7004C51.5004 21.8004 52.0004 22.5004 52.9004 22.5004C53.4004 22.5004 54.5004 21.8004 54.7004 20.6004C54.7004 20.3004 54.7004 19.9004 54.7004 19.6004ZM57.2004 20.6004C56.8004 23.2004 55.0004 24.4004 52.6004 24.4004C49.9004 24.4004 48.9004 22.8004 48.9004 20.8004C48.9004 18.0004 50.7004 16.2004 53.5004 16.2004C56.0004 16.2004 57.2004 17.7004 57.2004 19.7004C57.3004 20.1004 57.3004 20.1004 57.2004 20.6004Z" fill="white"/>
</svg>
