<svg width="20" height="20" viewBox="0 0 20 20" fill="none" xmlns="http://www.w3.org/2000/svg">
<path d="M9.04606 2C5.16097 2 2 5.16097 2 9.04606C2 12.9314 5.16097 16.0921 9.04606 16.0921C12.9314 16.0921 16.0921 12.9314 16.0921 9.04606C16.0921 5.16097 12.9314 2 9.04606 2ZM9.04606 14.7913C5.87816 14.7913 3.30081 12.214 3.30081 9.04609C3.30081 5.87819 5.87816 3.30081 9.04606 3.30081C12.214 3.30081 14.7913 5.87816 14.7913 9.04606C14.7913 12.214 12.214 14.7913 9.04606 14.7913Z" fill="#999999"/>
<path d="M17.81 16.8898L14.081 13.1608C13.8269 12.9067 13.4154 12.9067 13.1613 13.1608C12.9072 13.4147 12.9072 13.8266 13.1613 14.0805L16.8903 17.8095C17.0173 17.9365 17.1836 18 17.3501 18C17.5164 18 17.6829 17.9365 17.81 17.8095C18.0641 17.5556 18.0641 17.1437 17.81 16.8898Z" fill="#999999"/>
</svg>
