<svg width="20" height="20" viewBox="0 0 20 20" fill="none" xmlns="http://www.w3.org/2000/svg">
<path d="M6.66699 16.6668C5.14637 16.6675 3.81798 15.6391 3.43783 14.1668H1.66699V12.5001H3.43866C3.87169 10.823 5.51709 9.75696 7.22473 10.0472C8.93236 10.3375 10.1331 11.8873 9.98771 13.6133C9.84228 15.3393 8.39912 16.6663 6.66699 16.6668ZM6.66699 11.6668C5.75649 11.6677 5.01523 12.3991 5.00219 13.3095C4.98914 14.2199 5.70913 14.9723 6.61923 14.9994C7.52934 15.0264 8.29269 14.318 8.33366 13.4084V13.7418V13.3334C8.33366 12.4129 7.58747 11.6668 6.66699 11.6668ZM18.3337 14.1668H10.8337V12.5001H18.3337V14.1668ZM10.8337 10.0001C9.31335 10.0005 7.9854 8.97212 7.60533 7.50009H1.66699V5.83342H7.60533C8.03836 4.15629 9.68376 3.09029 11.3914 3.38055C13.099 3.67081 14.2998 5.2206 14.1544 6.94661C14.0089 8.67263 12.5658 9.99964 10.8337 10.0001ZM10.8337 5.00009C9.92316 5.00101 9.1819 5.73246 9.16885 6.64287C9.15581 7.55328 9.8758 8.30567 10.7859 8.33268C11.696 8.3597 12.4594 7.65133 12.5003 6.74175V7.07509V6.66675C12.5003 5.74628 11.7541 5.00009 10.8337 5.00009ZM18.3337 7.50009H15.0003V5.83342H18.3337V7.50009Z" fill="#333333"/>
</svg>
