<svg width="86" height="86" viewBox="0 0 86 86" fill="none" xmlns="http://www.w3.org/2000/svg">
<path fill-rule="evenodd" clip-rule="evenodd" d="M24.4277 61.5714V17H68.9992V61.5714H24.4277ZM29.0706 56C29.0706 57.0214 29.9063 57.8571 30.9277 57.8571C31.9492 57.8571 32.7849 57.0214 32.7849 56C32.7849 54.9786 31.9492 54.1429 30.9277 54.1429C29.9063 54.1429 29.0706 54.9786 29.0706 56ZM29.0706 49.3143C29.0706 50.3357 29.9063 51.1714 30.9277 51.1714C31.9492 51.1714 32.7849 50.3357 32.7849 49.3143C32.7849 48.2929 31.9492 47.4571 30.9277 47.4571C29.9063 47.4571 29.0706 48.2929 29.0706 49.3143ZM29.0706 42.6286C29.0706 43.65 29.9063 44.4857 30.9277 44.4857C31.9492 44.4857 32.7849 43.65 32.7849 42.6286C32.7849 41.6071 31.9492 40.7714 30.9277 40.7714C29.9063 40.7714 29.0706 41.6071 29.0706 42.6286ZM29.0706 35.9429C29.0706 36.9643 29.9063 37.8 30.9277 37.8C31.9492 37.8 32.7849 36.9643 32.7849 35.9429C32.7849 34.9214 31.9492 34.0857 30.9277 34.0857C29.9063 34.0857 29.0706 34.9214 29.0706 35.9429ZM29.0706 29.2571C29.0706 30.2786 29.9063 31.1143 30.9277 31.1143C31.9492 31.1143 32.7849 30.2786 32.7849 29.2571C32.7849 28.2357 31.9492 27.4 30.9277 27.4C29.9063 27.4 29.0706 28.2357 29.0706 29.2571ZM29.0706 22.5714C29.0706 23.5929 29.9063 24.4286 30.9277 24.4286C31.9492 24.4286 32.7849 23.5929 32.7849 22.5714C32.7849 21.55 31.9492 20.7143 30.9277 20.7143C29.9063 20.7143 29.0706 21.55 29.0706 22.5714ZM36.9634 56C36.9634 57.0214 37.7992 57.8571 38.8206 57.8571C39.842 57.8571 40.6777 57.0214 40.6777 56C40.6777 54.9786 39.842 54.1429 38.8206 54.1429C37.7992 54.1429 36.9634 54.9786 36.9634 56ZM36.9634 49.3143C36.9634 50.3357 37.7992 51.1714 38.8206 51.1714C39.842 51.1714 40.6777 50.3357 40.6777 49.3143C40.6777 48.2929 39.842 47.4571 38.8206 47.4571C37.7992 47.4571 36.9634 48.2929 36.9634 49.3143ZM36.9634 42.6286C36.9634 43.65 37.7992 44.4857 38.8206 44.4857C39.842 44.4857 40.6777 43.65 40.6777 42.6286C40.6777 41.6071 39.842 40.7714 38.8206 40.7714C37.7992 40.7714 36.9634 41.6071 36.9634 42.6286ZM36.9634 35.9429C36.9634 36.9643 37.7992 37.8 38.8206 37.8C39.842 37.8 40.6777 36.9643 40.6777 35.9429C40.6777 34.9214 39.842 34.0857 38.8206 34.0857C37.7992 34.0857 36.9634 34.9214 36.9634 35.9429ZM36.9634 29.2571C36.9634 30.2786 37.7992 31.1143 38.8206 31.1143C39.842 31.1143 40.6777 30.2786 40.6777 29.2571C40.6777 28.2357 39.842 27.4 38.8206 27.4C37.7992 27.4 36.9634 28.2357 36.9634 29.2571ZM36.9634 22.5714C36.9634 23.5929 37.7992 24.4286 38.8206 24.4286C39.842 24.4286 40.6777 23.5929 40.6777 22.5714C40.6777 21.55 39.842 20.7143 38.8206 20.7143C37.7992 20.7143 36.9634 21.55 36.9634 22.5714ZM44.8563 56C44.8563 57.0214 45.692 57.8571 46.7134 57.8571C47.7349 57.8571 48.5706 57.0214 48.5706 56C48.5706 54.9786 47.7349 54.1429 46.7134 54.1429C45.692 54.1429 44.8563 54.9786 44.8563 56ZM44.8563 49.3143C44.8563 50.3357 45.692 51.1714 46.7134 51.1714C47.7349 51.1714 48.5706 50.3357 48.5706 49.3143C48.5706 48.2929 47.7349 47.4571 46.7134 47.4571C45.692 47.4571 44.8563 48.2929 44.8563 49.3143ZM44.8563 42.6286C44.8563 43.65 45.692 44.4857 46.7134 44.4857C47.7349 44.4857 48.5706 43.65 48.5706 42.6286C48.5706 41.6071 47.7349 40.7714 46.7134 40.7714C45.692 40.7714 44.8563 41.6071 44.8563 42.6286ZM44.8563 35.9429C44.8563 36.9643 45.692 37.8 46.7134 37.8C47.7349 37.8 48.5706 36.9643 48.5706 35.9429C48.5706 34.9214 47.7349 34.0857 46.7134 34.0857C45.692 34.0857 44.8563 34.9214 44.8563 35.9429ZM44.8563 29.2571C44.8563 30.2786 45.692 31.1143 46.7134 31.1143C47.7349 31.1143 48.5706 30.2786 48.5706 29.2571C48.5706 28.2357 47.7349 27.4 46.7134 27.4C45.692 27.4 44.8563 28.2357 44.8563 29.2571ZM44.8563 22.5714C44.8563 23.5929 45.692 24.4286 46.7134 24.4286C47.7349 24.4286 48.5706 23.5929 48.5706 22.5714C48.5706 21.55 47.7349 20.7143 46.7134 20.7143C45.692 20.7143 44.8563 21.55 44.8563 22.5714ZM52.7492 56C52.7492 57.0214 53.5849 57.8571 54.6063 57.8571C55.6277 57.8571 56.4635 57.0214 56.4635 56C56.4635 54.9786 55.6277 54.1429 54.6063 54.1429C53.5849 54.1429 52.7492 54.9786 52.7492 56ZM52.7492 49.3143C52.7492 50.3357 53.5849 51.1714 54.6063 51.1714C55.6277 51.1714 56.4635 50.3357 56.4635 49.3143C56.4635 48.2929 55.6277 47.4571 54.6063 47.4571C53.5849 47.4571 52.7492 48.2929 52.7492 49.3143ZM52.7492 42.6286C52.7492 43.65 53.5849 44.4857 54.6063 44.4857C55.6277 44.4857 56.4635 43.65 56.4635 42.6286C56.4635 41.6071 55.6277 40.7714 54.6063 40.7714C53.5849 40.7714 52.7492 41.6071 52.7492 42.6286ZM52.7492 35.9429C52.7492 36.9643 53.5849 37.8 54.6063 37.8C55.6277 37.8 56.4635 36.9643 56.4635 35.9429C56.4635 34.9214 55.6277 34.0857 54.6063 34.0857C53.5849 34.0857 52.7492 34.9214 52.7492 35.9429ZM52.7492 29.2571C52.7492 30.2786 53.5849 31.1143 54.6063 31.1143C55.6277 31.1143 56.4635 30.2786 56.4635 29.2571C56.4635 28.2357 55.6277 27.4 54.6063 27.4C53.5849 27.4 52.7492 28.2357 52.7492 29.2571ZM52.7492 22.5714C52.7492 23.5929 53.5849 24.4286 54.6063 24.4286C55.6277 24.4286 56.4635 23.5929 56.4635 22.5714C56.4635 21.55 55.6277 20.7143 54.6063 20.7143C53.5849 20.7143 52.7492 21.55 52.7492 22.5714ZM60.642 56C60.642 57.0214 61.4777 57.8571 62.4992 57.8571C63.5206 57.8571 64.3563 57.0214 64.3563 56C64.3563 54.9786 63.5206 54.1429 62.4992 54.1429C61.4777 54.1429 60.642 54.9786 60.642 56ZM60.642 49.3143C60.642 50.3357 61.4777 51.1714 62.4992 51.1714C63.5206 51.1714 64.3563 50.3357 64.3563 49.3143C64.3563 48.2929 63.5206 47.4571 62.4992 47.4571C61.4777 47.4571 60.642 48.2929 60.642 49.3143ZM60.642 42.6286C60.642 43.65 61.4777 44.4857 62.4992 44.4857C63.5206 44.4857 64.3563 43.65 64.3563 42.6286C64.3563 41.6071 63.5206 40.7714 62.4992 40.7714C61.4777 40.7714 60.642 41.6071 60.642 42.6286ZM60.642 35.9429C60.642 36.9643 61.4777 37.8 62.4992 37.8C63.5206 37.8 64.3563 36.9643 64.3563 35.9429C64.3563 34.9214 63.5206 34.0857 62.4992 34.0857C61.4777 34.0857 60.642 34.9214 60.642 35.9429ZM60.642 29.2571C60.642 30.2786 61.4777 31.1143 62.4992 31.1143C63.5206 31.1143 64.3563 30.2786 64.3563 29.2571C64.3563 28.2357 63.5206 27.4 62.4992 27.4C61.4777 27.4 60.642 28.2357 60.642 29.2571ZM60.642 22.5714C60.642 23.5929 61.4777 24.4286 62.4992 24.4286C63.5206 24.4286 64.3563 23.5929 64.3563 22.5714C64.3563 21.55 63.5206 20.7143 62.4992 20.7143C61.4777 20.7143 60.642 21.55 60.642 22.5714ZM22.572 63.4282V20.7139H20.7148V65.2853H65.2863V63.4282H22.572ZM18.8571 67.1429V24.4286H17V69H61.5714V67.1429H18.8571Z" fill="#99B35B"/>
</svg>
