<svg width="86" height="86" viewBox="0 0 86 86" fill="none" xmlns="http://www.w3.org/2000/svg">
<path d="M9 56.8679V67.4378C9 68.6277 9.96482 69.5818 11.144 69.5818H73.856C75.0459 69.5818 76 68.6277 76 67.4378V56.8679H9ZM35.9056 65.2991H13.2919V61.1545H35.9056V65.2991ZM54.0169 65.2991H51.8045V61.1545H54.0169V65.2991ZM58.4416 65.2991H56.2292V61.1545H58.4416V65.2991ZM62.8664 65.2991H60.654V61.1545H62.8664V65.2991ZM67.2911 65.2991H65.0787V61.1545H67.2911V65.2991ZM71.7159 65.2991H69.5035V61.1545H71.7159V65.2991Z" fill="#99B35B"/>
<path d="M74.7999 54.7237H10.2012L18.7986 39.3512C19.3668 38.3435 20.4388 37.711 21.6073 37.711H33.8602V17H51.1409V37.711H63.3938C64.5623 37.711 65.6343 38.3435 66.2024 39.3512L74.7999 54.7237Z" fill="#99B35B"/>
</svg>
