<svg width="86" height="86" viewBox="0 0 86 86" fill="none" xmlns="http://www.w3.org/2000/svg">
<path fill-rule="evenodd" clip-rule="evenodd" d="M30.5453 14.0002H55.9993C58.5083 14.0002 60.5446 16.0366 60.5446 18.5456V35.8179H26V18.5456C26 16.0366 28.0363 14.0002 30.5453 14.0002ZM30.5453 32.1816C31.0544 32.1816 31.4544 31.7816 31.4544 31.2726V25.8181C31.4544 25.3091 31.0544 24.9091 30.5453 24.9091C30.0363 24.9091 29.6363 25.3091 29.6363 25.8181V31.2726C29.6363 31.7816 30.0363 32.1816 30.5453 32.1816ZM26.9091 70.3637C26.4 70.3637 26 69.9637 26 69.4546V37.6008H60.5446V69.4546C60.5446 69.9637 60.1447 70.3637 59.6356 70.3637H56.9084V73.0909C56.9084 73.6 56.5084 74 55.9993 74H52.363C51.8539 74 51.4539 73.6 51.4539 73.0909V70.3637H35.0907V73.0909C35.0907 73.6 34.6907 74 34.1816 74H30.5453C30.0363 74 29.6363 73.6 29.6363 73.0909V70.3637H26.9091ZM30.5453 41.2735C30.0363 41.2735 29.6363 41.6735 29.6363 42.1825V53.0914C29.6363 53.6005 30.0363 54.0004 30.5453 54.0004C31.0544 54.0004 31.4544 53.6005 31.4544 53.0914V42.1825C31.4544 41.6735 31.0544 41.2735 30.5453 41.2735ZM31.4544 72.1818H33.2726V70.3637H31.4544V72.1818ZM53.2721 72.1818H55.0902V70.3637H53.2721V72.1818Z" fill="#99B35B"/>
</svg>
