<svg width="86" height="86" viewBox="0 0 86 86" fill="none" xmlns="http://www.w3.org/2000/svg">
<path fill-rule="evenodd" clip-rule="evenodd" d="M73.7712 20.0002H12.1807C11.5288 20.0002 11 20.5291 11 21.1809V63.8196C11 64.4714 11.5288 65.0002 12.1807 65.0002H73.7589C74.4108 65.0002 74.9396 64.4714 74.9396 63.8196V21.1932C74.9396 20.5414 74.4108 20.0125 73.7589 20.0125L73.7712 20.0002ZM16.9156 42.5064C16.9156 34.0205 23.815 27.1087 32.3132 27.1087C40.8114 27.1087 47.7108 34.0082 47.7108 42.5064C47.7108 51.0046 40.8114 57.904 32.3132 57.904C23.815 57.904 16.9156 51.0046 16.9156 42.5064ZM52.4458 41.3257H67.8434C68.4952 41.3257 69.0241 41.8546 69.0241 42.5064C69.0241 43.1582 68.4952 43.687 67.8434 43.687H52.4458C51.7939 43.687 51.2651 43.1582 51.2651 42.5064C51.2651 41.8546 51.7939 41.3257 52.4458 41.3257ZM51.2651 35.4102C51.2651 34.7584 51.7939 34.2295 52.4458 34.2295H67.8434C68.4952 34.2295 69.0241 34.7584 69.0241 35.4102C69.0241 36.062 68.4952 36.5908 67.8434 36.5908H52.4458C51.7939 36.5908 51.2651 36.062 51.2651 35.4102ZM52.4458 48.4342H67.8434C68.4952 48.4342 69.0241 48.9631 69.0241 49.6149C69.0241 50.2667 68.4952 50.7955 67.8434 50.7955H52.4458C51.7939 50.7955 51.2651 50.2667 51.2651 49.6149C51.2651 48.9631 51.7939 48.4342 52.4458 48.4342ZM52.4458 55.5427H67.8434C68.4952 55.5427 69.0241 56.0716 69.0241 56.7234C69.0241 57.3752 68.4952 57.904 67.8434 57.904H52.4458C51.7939 57.904 51.2651 57.3752 51.2651 56.7234C51.2651 56.0716 51.7939 55.5427 52.4458 55.5427ZM67.8434 29.4823H52.4458C51.7939 29.4823 51.2651 28.9535 51.2651 28.3017C51.2651 27.6499 51.7939 27.121 52.4458 27.121H67.8434C68.4952 27.121 69.0241 27.6499 69.0241 28.3017C69.0241 28.9535 68.4952 29.4823 67.8434 29.4823ZM45.3499 42.5067C45.3499 35.3121 39.5081 29.4827 32.3258 29.4827C25.1435 29.4827 19.3018 35.3244 19.3018 42.5067C19.3018 49.689 25.1435 55.5308 32.3258 55.5308C39.5081 55.5308 45.3499 49.689 45.3499 42.5067ZM25.6232 48.1763C25.4387 46.5652 25.8814 44.9787 26.7915 43.6874H22.0566C21.7491 43.6874 21.4417 43.5521 21.2203 43.3307C21.0112 43.1216 20.876 42.8142 20.876 42.4944C20.9129 39.0755 23.3971 36.1976 26.6562 35.8041C28.2673 35.6073 29.8415 36.0623 31.1452 36.9724V32.2375C31.1452 31.9301 31.2804 31.6226 31.5018 31.4012C31.7232 31.1921 32.0798 31.0692 32.3381 31.0569C35.7571 31.0938 38.6349 33.578 39.0285 36.8371C39.2129 38.4482 38.7702 40.0347 37.8601 41.3261H42.595C42.9025 41.3261 43.2099 41.4613 43.4313 41.6827C43.6404 41.8918 43.7757 42.1993 43.7757 42.519C43.7388 45.938 41.2545 48.8158 37.9954 49.2094C37.7494 49.2463 37.4912 49.2586 37.2329 49.2586C35.8924 49.2586 34.5887 48.8035 33.5065 48.041V52.7759C33.5065 53.0834 33.3712 53.3908 33.1498 53.6122C32.9407 53.8213 32.6333 53.9566 32.3258 53.9566C28.9068 53.9197 26.029 51.4354 25.6355 48.1763H25.6232ZM26.9265 38.1535C28.2302 37.9936 29.5338 38.5224 30.4439 39.494C29.7798 39.9122 29.2509 40.5517 28.9804 41.3142H23.4092C23.8765 39.6539 25.2539 38.3503 26.9265 38.1535ZM35.327 40.6365C36.2986 39.7141 36.8151 38.4105 36.6675 37.1192C36.4708 35.4466 35.1671 34.0691 33.5068 33.6018V39.173C34.2693 39.4436 34.9089 39.9724 35.327 40.6365ZM33.4922 42.5071C33.4922 43.1591 32.9636 43.6877 32.3115 43.6877C31.6595 43.6877 31.1309 43.1591 31.1309 42.5071C31.1309 41.855 31.6595 41.3264 32.3115 41.3264C32.9636 41.3264 33.4922 41.855 33.4922 42.5071ZM29.3117 44.3743C28.3401 45.2966 27.8236 46.6003 27.9712 47.8916C28.168 49.5642 29.4716 50.9416 31.1319 51.409V45.8378C30.3694 45.5672 29.7299 45.0384 29.3117 44.3743ZM37.699 46.8602C36.4077 47.02 35.0917 46.4912 34.1816 45.5196C34.8458 45.1015 35.3746 44.462 35.6452 43.6995H41.2163C40.749 45.3598 39.3716 46.6634 37.699 46.8602Z" fill="#99B35B"/>
</svg>
