<svg width="86" height="86" viewBox="0 0 86 86" fill="none" xmlns="http://www.w3.org/2000/svg">
<path d="M66.0087 49.5597C65.8203 48.8149 65.3888 48.1544 64.7825 47.6826C64.1763 47.2108 63.4299 46.9548 62.6617 46.9551H58.2288C58.2638 47.3766 58.2808 47.8003 58.2808 48.2218C58.2808 56.6469 51.4263 63.5026 43 63.5026C34.5737 63.5026 27.7181 56.6424 27.7181 48.2218C27.7181 47.8003 27.7362 47.3766 27.7712 46.9551H23.3383C22.5705 46.9541 21.8243 47.2092 21.2177 47.6799C20.6111 48.1506 20.1788 48.8101 19.989 49.554L16.1064 64.8585C15.9769 65.3682 15.9655 65.9007 16.0729 66.4155C16.1804 66.9303 16.4039 67.4137 16.7265 67.829C17.049 68.2444 17.4621 68.5806 17.9343 68.8121C18.4065 69.0436 18.9253 69.1642 19.4511 69.1649H66.5477C67.0737 69.1644 67.5926 69.0439 68.0649 68.8124C68.5372 68.581 68.9505 68.2448 69.2732 67.8295C69.5959 67.4142 69.8195 66.9306 69.927 66.4158C70.0345 65.9009 70.0231 65.3683 69.8936 64.8585L66.0087 49.5597Z" fill="#99B35B"/>
<path d="M51.2915 35.3806V27.3058H34.709V35.3806C37.1808 33.7873 40.0594 32.9399 43.0002 32.9399C45.9411 32.9399 48.8197 33.7873 51.2915 35.3806Z" fill="#99B35B"/>
<path d="M56.7869 17.0002H29.2153C28.953 17.0015 28.6946 17.0632 28.46 17.1805C28.2254 17.2979 28.021 17.4676 27.8626 17.6766C27.7041 17.8856 27.5959 18.1283 27.5464 18.3859C27.4968 18.6434 27.5073 18.9089 27.5768 19.1618L29.0808 24.6309C29.1805 24.9916 29.3956 25.3096 29.6931 25.5365C29.9906 25.7634 30.3542 25.8867 30.7283 25.8875H55.3179C55.6934 25.887 56.0583 25.763 56.3564 25.5347C56.6545 25.3065 56.8693 24.9865 56.9677 24.6242L58.4468 19.155C58.5156 18.9008 58.5247 18.6342 58.4734 18.3759C58.4222 18.1176 58.3119 17.8746 58.1511 17.666C57.9904 17.4574 57.7837 17.2887 57.547 17.1732C57.3104 17.0577 57.0502 16.9985 56.7869 17.0002Z" fill="#99B35B"/>
<path d="M43.0001 34.2942C40.2459 34.2942 37.5534 35.1109 35.2633 36.6411C32.9732 38.1713 31.1883 40.3463 30.1343 42.8909C29.0803 45.4355 28.8045 48.2356 29.3418 50.9369C29.8791 53.6383 31.2055 56.1196 33.153 58.0672C35.1006 60.0148 37.582 61.3411 40.2833 61.8784C42.9847 62.4158 45.7847 62.14 48.3294 61.086C50.874 60.032 53.0489 58.247 54.5791 55.9569C56.1093 53.6668 56.9261 50.9744 56.9261 48.2201C56.9216 44.5281 55.4529 40.9886 52.8423 38.378C50.2316 35.7673 46.6921 34.2987 43.0001 34.2942ZM34.9671 50.2631C34.5631 50.2629 34.1682 50.1429 33.8324 49.9183C33.4965 49.6936 33.2349 49.3745 33.0804 49.0011C32.9259 48.6278 32.8856 48.2171 32.9646 47.8208C33.0436 47.4246 33.2382 47.0607 33.524 46.7751C33.8098 46.4895 34.1738 46.295 34.5701 46.2163C34.9663 46.1375 35.3771 46.1781 35.7503 46.3327C36.1235 46.4874 36.4426 46.7492 36.667 47.0852C36.8914 47.4211 37.0112 47.8161 37.0112 48.2201C37.0112 48.4885 36.9583 48.7542 36.8556 49.0022C36.7529 49.2501 36.6023 49.4754 36.4124 49.6651C36.2226 49.8549 35.9973 50.0053 35.7493 50.1079C35.5013 50.2105 35.2355 50.2633 34.9671 50.2631ZM43.0001 58.2962C42.596 58.2964 42.2009 58.1768 41.8648 57.9524C41.5287 57.7281 41.2666 57.4091 41.1118 57.0358C40.957 56.6625 40.9164 56.2517 40.9951 55.8553C41.0738 55.4589 41.2683 55.0948 41.554 54.8089C41.8397 54.5231 42.2037 54.3284 42.6 54.2495C42.9964 54.1706 43.4072 54.211 43.7806 54.3656C44.154 54.5202 44.4731 54.782 44.6976 55.118C44.9222 55.454 45.042 55.849 45.042 56.2532C45.0422 56.5214 44.9895 56.787 44.8869 57.0349C44.7844 57.2828 44.634 57.508 44.4444 57.6977C44.2547 57.8874 44.0296 58.0379 43.7818 58.1406C43.534 58.2433 43.2684 58.2962 43.0001 58.2962ZM43.0001 50.2631C42.596 50.2633 42.2009 50.1437 41.8648 49.9194C41.5287 49.695 41.2666 49.376 41.1118 49.0027C40.957 48.6294 40.9164 48.2186 40.9951 47.8222C41.0738 47.4258 41.2683 47.0617 41.554 46.7759C41.8397 46.49 42.2037 46.2954 42.6 46.2164C42.9964 46.1375 43.4072 46.1779 43.7806 46.3325C44.154 46.4871 44.4731 46.749 44.6976 47.085C44.9222 47.4209 45.042 47.816 45.042 48.2201C45.042 48.7617 44.8269 49.2812 44.444 49.6643C44.0611 50.0474 43.5418 50.2628 43.0001 50.2631ZM43.0001 42.2301C42.596 42.2303 42.2009 42.1107 41.8648 41.8863C41.5287 41.6619 41.2666 41.343 41.1118 40.9697C40.957 40.5964 40.9164 40.1856 40.9951 39.7892C41.0738 39.3928 41.2683 39.0287 41.554 38.7428C41.8397 38.457 42.2037 38.2623 42.6 38.1834C42.9964 38.1045 43.4072 38.1449 43.7806 38.2995C44.154 38.454 44.4731 38.7159 44.6976 39.0519C44.9222 39.3879 45.042 39.7829 45.042 40.1871C45.042 40.7287 44.8269 41.2482 44.444 41.6313C44.0611 42.0144 43.5418 42.2298 43.0001 42.2301ZM51.0332 50.2631C50.6291 50.2633 50.234 50.1437 49.8978 49.9194C49.5617 49.695 49.2997 49.376 49.1449 49.0027C48.9901 48.6294 48.9495 48.2186 49.0282 47.8222C49.1069 47.4258 49.3014 47.0617 49.587 46.7759C49.8727 46.49 50.2367 46.2954 50.6331 46.2164C51.0294 46.1375 51.4402 46.1779 51.8136 46.3325C52.187 46.4871 52.5061 46.749 52.7307 47.085C52.9552 47.4209 53.0751 47.816 53.0751 48.2201C53.0751 48.7617 52.86 49.2812 52.4771 49.6643C52.0942 50.0474 51.5748 50.2628 51.0332 50.2631Z" fill="#99B35B"/>
</svg>
