<svg width="86" height="86" viewBox="0 0 86 86" fill="none" xmlns="http://www.w3.org/2000/svg">
<path fill-rule="evenodd" clip-rule="evenodd" d="M13 37.3547H41.8958V61.5006H13V37.3547ZM30.6146 40.5214H38.9271V43.4902H30.6146V40.5214Z" fill="#99B35B"/>
<path fill-rule="evenodd" clip-rule="evenodd" d="M44.8652 37.3547H73.7611V61.5006H44.8652V37.3547ZM48.0319 40.5214H56.1465V43.4902H48.0319V40.5214Z" fill="#99B35B"/>
<path fill-rule="evenodd" clip-rule="evenodd" d="M15.7715 65.0627H71.1882V71.0002H15.7715V65.0627Z" fill="#99B35B"/>
<path fill-rule="evenodd" clip-rule="evenodd" d="M35.7598 27.8544H41.1035V20.1356C41.1035 18.5523 41.8952 16.9689 43.0827 15.7814C44.0723 14.5939 45.6556 14.0002 47.4369 14.0002C49.2181 14.0002 50.6035 14.5939 51.791 15.7814C52.9785 16.9689 53.7702 18.5523 53.7702 20.1356V22.5106H51.1973V20.1356C51.1973 19.146 50.8014 18.1564 50.0098 17.5627C49.416 16.771 48.4264 16.3752 47.4369 16.3752C46.4473 16.3752 45.4577 16.771 44.666 17.5627C44.0723 18.1564 43.6764 19.146 43.6764 20.1356V27.8544H51.3952V33.5939H35.7598V27.8544Z" fill="#99B35B"/>
<path fill-rule="evenodd" clip-rule="evenodd" d="M54.5625 24.4895C54.9583 24.4895 55.1562 24.6874 55.1562 25.0833C55.1562 25.4791 54.9583 25.677 54.5625 25.677C54.1667 25.677 53.9688 25.4791 53.9688 25.0833C53.9688 24.6874 54.1667 24.4895 54.5625 24.4895Z" fill="#99B35B"/>
<path fill-rule="evenodd" clip-rule="evenodd" d="M56.9368 26.8645C57.1348 26.8645 57.3327 27.0624 57.3327 27.2603C57.3327 27.4583 57.1348 27.4583 56.9368 27.4583C56.7389 27.4583 56.541 27.4583 56.541 27.2603C56.541 27.0624 56.7389 26.8645 56.9368 26.8645Z" fill="#99B35B"/>
<path fill-rule="evenodd" clip-rule="evenodd" d="M51.5938 24.6877C51.9896 24.6877 52.1875 25.0836 52.1875 25.2815C52.1875 25.6773 51.9896 26.0732 51.5938 26.0732C51.1979 26.0732 51 25.6773 51 25.2815C51 25.0836 51.1979 24.6877 51.5938 24.6877Z" fill="#99B35B"/>
<path fill-rule="evenodd" clip-rule="evenodd" d="M52.9785 26.6672C53.1764 26.6672 53.5723 26.8652 53.5723 27.261C53.5723 27.6568 53.1764 27.8547 52.9785 27.8547C52.5827 27.8547 52.3848 27.6568 52.3848 27.261C52.3848 26.8652 52.5827 26.6672 52.9785 26.6672Z" fill="#99B35B"/>
<path fill-rule="evenodd" clip-rule="evenodd" d="M54.959 28.052C55.3548 28.052 55.7507 28.2499 55.7507 28.6458C55.7507 28.8437 55.3548 29.2395 54.959 29.2395C54.7611 29.2395 54.3652 28.8437 54.3652 28.6458C54.3652 28.2499 54.7611 28.052 54.959 28.052Z" fill="#99B35B"/>
</svg>
