<svg width="86" height="86" viewBox="0 0 86 86" fill="none" xmlns="http://www.w3.org/2000/svg">
<path d="M45.0523 45.593C44.8424 46.4327 44.4925 47.2025 44.1426 48.0423C44.9124 48.3922 45.5422 48.8821 46.1021 49.5819C46.9419 50.7716 47.1518 52.3112 46.6619 53.7109L45.6122 56.5801C47.5717 57.5599 49.8111 58.1197 52.1905 58.1197C60.3784 58.1197 67.0267 51.4714 67.0267 43.2836C67.0267 35.0957 60.3784 28.4474 52.1905 28.4474C50.371 28.4474 48.6214 28.7973 47.0118 29.3572C47.4317 30.4069 47.4317 31.6666 46.9419 32.7163L45.1923 36.7053C45.1923 36.7752 45.1223 36.9152 45.0523 36.9852C45.1923 37.1251 45.3323 37.2651 45.4722 37.4051C46.312 38.5248 46.5919 39.9244 46.242 41.3241L45.0523 45.593Z" fill="#99B35B"/>
<path d="M52.1908 19.0001C45.5425 19.0001 39.4541 21.6594 35.1152 25.9983L43.0932 26.4882C43.723 26.5582 44.2829 26.6981 44.8427 26.9781C47.0821 25.9283 49.5315 25.3685 52.1908 25.3685C62.0583 25.3685 70.0362 33.3464 70.0362 43.2139C70.0362 53.0113 62.0583 61.0593 52.1908 61.0593C49.4615 61.0593 46.8722 60.4294 44.4928 59.3097C43.5131 61.2692 42.1834 63.0187 40.5038 64.5583C43.933 66.4479 47.9219 67.4976 52.1208 67.4976C65.6273 67.5676 76.4745 56.7204 76.4745 43.2838C76.4745 29.8473 65.6273 19.0001 52.1908 19.0001Z" fill="#99B35B"/>
<path d="M12.1619 33.6966C12.5818 35.0262 13.1417 36.3559 13.9814 37.5456L41.6243 35.7261C41.7643 35.7261 41.8342 35.7261 41.9042 35.7261C42.0442 35.7261 42.2541 35.7261 42.3941 35.7261C42.3941 35.7261 42.3941 35.6561 42.4641 35.6561L44.2136 31.5971C44.6335 30.6874 44.0037 29.6376 42.9539 29.5676L12.4418 27.6082C11.4621 27.5382 10.6223 28.5179 10.9022 29.4977L12.1619 33.6966Z" fill="#99B35B"/>
<path d="M12.301 47.6929H40.9935C41.4834 46.7831 41.9033 45.8034 42.1832 44.8237L43.3729 40.6247C43.6529 39.645 42.8831 38.6652 41.8333 38.7352L11.3912 40.6947C10.3415 40.7647 9.71163 41.8144 10.1315 42.7242L11.8811 46.7831C11.9511 47.1331 12.161 47.413 12.301 47.6929Z" fill="#99B35B"/>
<path d="M43.795 52.6618C44.1449 51.682 43.4451 50.7023 42.3953 50.7023H11.8832C10.8335 50.7023 10.1337 51.682 10.4836 52.6618L11.9532 56.7907C12.863 59.45 14.6825 61.7594 17.2019 63.509C17.6917 63.8589 18.2516 64.1388 18.8814 64.3487V66.5882C18.8814 67.148 19.3013 67.5679 19.8612 67.5679H34.3474C34.9073 67.5679 35.3272 67.148 35.3272 66.5882V64.3487C35.957 64.1388 36.5169 63.8589 37.0067 63.509C39.5261 61.7594 41.3456 59.45 42.3254 56.7907L43.795 52.6618Z" fill="#99B35B"/>
</svg>
