<svg width="86" height="86" viewBox="0 0 86 86" fill="none" xmlns="http://www.w3.org/2000/svg">
<path fill-rule="evenodd" clip-rule="evenodd" d="M56.5315 13.4838L59 14.1206V73.8152H27V14.1213L29.4685 13.4846L32.1537 12.9561L34.8577 12.5301L37.5414 12.2561H37.5436L40.2854 12.0642L42.9996 12.0002L45.7349 12.0635L48.4564 12.2554H48.4586L51.1423 12.5294L53.8471 12.9554L56.5315 13.4838ZM28.533 71.5146H57.4881V35.17H28.533V71.5146ZM28.533 34.7156H57.4881H57.4895V15.6383L55.2667 15.1273L52.8207 14.6803L50.3856 14.3198L47.9251 14.0661L45.4638 13.9171L43.0004 13.8742L40.5369 13.9171L38.0757 14.0661L35.6166 14.3198L33.2018 14.6803L30.7559 15.1273L28.533 15.6383V34.7156ZM54.2247 16.6826L51.991 16.2777L49.7681 15.9593L47.493 15.7478L45.2519 15.6213L42.9993 15.5784L40.7474 15.6213L38.5064 15.7478L36.2312 15.9593L34.0076 16.2777L31.7746 16.6826H31.7739L30.0017 17.0671V33.247H55.9969V17.0671L54.2254 16.6826H54.2247ZM30.0017 36.0639H42.1968V69.6616H30.0017V36.0639ZM43.8244 36.0639H55.9984V69.6616H43.8244V36.0639Z" fill="#99B35B"/>
</svg>
