<svg width="86" height="86" viewBox="0 0 86 86" fill="none" xmlns="http://www.w3.org/2000/svg">
<path fill-rule="evenodd" clip-rule="evenodd" d="M18.8336 14.0002H67.1664C69.8243 14.0002 72 16.176 72 18.8338V67.1667C72 69.8245 69.8243 72.0002 67.1664 72.0002H18.8336C16.1757 72.0002 14 69.8245 14 67.1667V18.8338C14 16.176 16.1757 14.0002 18.8336 14.0002ZM30.9164 21.2502C26.9137 21.2502 23.6664 24.4975 23.6664 28.5002V52.6667H28.5V47.8338H47.8336V52.6667H52.6664V28.5002C52.6664 27.1641 53.7496 26.0838 55.0836 26.0838C56.4169 26.0838 57.5 27.1641 57.5 28.5002H62.3336C62.3336 24.4975 59.0863 21.2502 55.0836 21.2502C51.0809 21.2502 47.8336 24.4975 47.8336 28.5002V33.3338H28.5V28.5002C28.5 27.1641 29.581 26.0838 30.9164 26.0838C32.2526 26.0838 33.3336 27.1641 33.3336 28.5002H38.1664C38.1664 24.4975 34.9192 21.2502 30.9164 21.2502ZM57.4978 64.7502C60.0752 64.7502 62.5504 64.1006 64.75 62.8928V56.9123C60.7429 60.9172 54.2527 60.9172 50.25 56.9123C46.2429 60.9172 39.7527 60.9172 35.75 56.9123C31.7429 60.9172 25.2527 60.9172 21.25 56.9123V62.8928C23.4468 64.1006 25.9226 64.7502 28.5 64.7502C31.0723 64.7502 33.5504 64.1079 35.75 62.9C40.1399 65.3165 45.8551 65.3165 50.25 62.9C52.4446 64.1079 54.9226 64.7502 57.4978 64.7502ZM28.5 38.1661H47.8336V42.9997H28.5V38.1661Z" fill="#99B35B"/>
</svg>
