<svg width="86" height="86" viewBox="0 0 86 86" fill="none" xmlns="http://www.w3.org/2000/svg">
<path d="M57.8632 19.0002L62.3784 31.3859H49.8635L48.8756 23.2673L48.3574 19.0002H57.8632ZM38.2405 19.0002H47.7611L49.2656 31.3859L51.8961 53.0194H34.1047L36.2162 35.6498L36.6621 31.9809L37.3733 26.1296L38.2405 19.0002ZM28.1384 19.0002H37.6418L36.1365 31.3859H23.6216L28.1384 19.0002ZM31.9293 66.0002H11L23.4056 31.9809H36.0642L33.9528 49.3506L33.5069 53.0194L32.7957 58.8708L31.9293 66.0002ZM32.5271 66.0002L34.0325 53.6144H51.9683L52.9547 61.7331L53.4737 66.0002H32.5271ZM54.0707 66.0002L52.5646 53.6144L49.9358 31.9809H62.5944L75 66.0002H54.0707Z" fill="#99B35B"/>
</svg>
