<svg width="86" height="86" viewBox="0 0 86 86" fill="none" xmlns="http://www.w3.org/2000/svg">
<path fill-rule="evenodd" clip-rule="evenodd" d="M74.5879 34.9999C73.8041 33.0441 72.5354 31.32 70.9014 29.9898C68.6382 28.2831 65.9447 27.24 63.1223 26.9773C61.6716 26.8161 60.2133 26.732 58.7537 26.7256C58.7319 25.2273 58.5357 23.7367 58.1691 22.2838C59.7982 23.333 61.6476 23.9921 63.5731 24.2096C65.4986 24.4272 67.4484 24.1974 69.2706 23.5381C71.0928 22.8789 72.7382 21.808 74.0788 20.4087C75.4194 19.0095 76.4189 17.3198 76.9996 15.471C75.446 14.321 73.6485 13.544 71.7463 13.2005C69.8441 12.8569 67.8884 12.9559 66.0306 13.4899C64.1729 14.0238 62.463 14.9783 61.0335 16.2794C59.604 17.5805 58.4933 19.1933 57.7874 20.9927C57.5375 20.2354 57.2392 19.4949 56.8942 18.7759L54.5962 19.8722C55.6277 22.0149 56.1818 24.3559 56.2202 26.7336C56.074 26.7336 55.9258 26.7357 55.7777 26.7377C55.6295 26.7397 55.4813 26.7418 55.3351 26.7418C52.8619 26.6771 50.3891 26.8868 47.9621 27.367C45.4888 27.8983 43.2134 29.1105 41.3929 30.8668C40.0256 32.2691 38.9929 33.9624 38.3723 35.8201C38.0787 36.6817 37.8613 37.5675 37.7227 38.4672C38.2098 38.9463 38.6564 39.4254 39.0624 39.872C40.2805 41.22 41.5229 42.6816 42.8789 44.3787L43.358 44.9796C43.7133 45.422 44.0741 45.8866 44.445 46.3641L44.4453 46.3645L44.6816 46.6686L45.2338 47.3912L45.8265 48.1626H45.8184L45.8671 48.2276C46.7765 49.4375 47.6725 50.6393 48.5549 51.8329L48.843 52.22C49.5738 53.2018 50.3003 54.1779 51.0396 55.154C51.129 55.2677 51.2183 55.3895 51.3076 55.5195L52.0627 56.5263L52.2134 56.7311C52.5763 57.2242 52.961 57.7469 53.3457 58.2884L53.3539 58.2803L54.3445 59.6851L54.3364 59.6932C55.0266 60.692 55.6681 61.6664 56.2609 62.6083C57.4343 62.5662 58.6071 62.7087 59.7363 63.0305H59.7444C59.7444 63.0305 64.3079 64.3785 65.9725 62.4053C65.9725 62.4053 76.0415 53.8954 75.7329 41.7477C75.727 41.4936 75.7287 41.2405 75.7304 40.9878C75.7334 40.5541 75.7363 40.1213 75.7004 39.6852C75.5674 38.0764 75.1923 36.4968 74.5879 34.9999ZM52.9155 60.4908C52.36 60.8453 51.8449 61.2593 51.3792 61.7255C51.1628 61.9417 50.9577 62.1688 50.7645 62.4059C50.5206 62.7051 50.2959 63.0196 50.092 63.3474L49.5769 64.1745L49.8905 63.2522C50.0186 62.8747 50.1704 62.5056 50.3451 62.1472C50.8237 61.171 51.4593 60.28 52.2267 59.5097C51.3935 58.3387 50.5559 57.2122 49.7432 56.1333C48.9095 55.0269 48.0809 53.9158 47.2573 52.8002C46.3747 51.6106 45.4811 50.4091 44.5739 49.2085C43.8242 49.3773 43.1002 49.6448 42.4208 50.0039C41.3654 50.5699 40.4323 51.3391 39.6753 52.2671C39.4314 52.5664 39.2067 52.8808 39.0028 53.2087L38.4877 54.0357L38.8013 53.1135C38.9294 52.7359 39.0812 52.3669 39.2559 52.0085C39.8349 50.8268 40.642 49.7714 41.6307 48.9031C42.1736 48.429 42.7647 48.0132 43.3945 47.6626C41.6315 45.3729 39.8032 43.107 37.8585 40.9589C35.9069 38.8023 32.9227 35.9285 29.5559 35.8721C28.6355 35.8765 27.7265 36.0763 26.889 36.4582C26.0515 36.8401 25.3046 37.3954 24.6976 38.0874L23.197 39.5885C22.5029 40.1953 21.9458 40.9428 21.5627 41.7813C21.1795 42.6198 20.9791 43.5303 20.9746 44.4522C21.031 47.8173 23.9059 50.802 26.0629 52.7542C26.4366 53.0925 26.8163 53.4248 27.1965 53.7565C27.4777 53.3124 27.7927 52.8908 28.1388 52.4953C29.0086 51.5074 30.0641 50.7001 31.2453 50.1193C31.6033 49.945 31.972 49.7934 32.3492 49.6654L33.2682 49.3534L32.4444 49.8669C31.0953 50.7064 29.9901 51.8853 29.2393 53.2857C28.9617 53.8107 28.7386 54.3628 28.5734 54.9333C31.6292 57.4955 34.8367 59.879 37.9634 62.1982C38.1012 62.3005 38.2386 62.4031 38.376 62.5058L38.3763 62.506C38.5012 62.5993 38.6261 62.6927 38.7514 62.7857C39.5908 61.8741 40.5914 61.1254 41.7029 60.5774C42.061 60.4029 42.4298 60.2512 42.807 60.1232L43.726 59.8112L42.9023 60.3247C41.6119 61.1274 40.5442 62.242 39.7976 63.5657C39.9525 63.6811 40.1076 63.7963 40.2627 63.9116C40.5883 64.1535 40.9139 64.3954 41.2377 64.6392C43.3853 66.2571 45.7216 67.9729 48.2258 69.5588C48.8663 69.0073 49.5745 68.5396 50.3333 68.167C50.6915 67.9927 51.0602 67.841 51.4372 67.7126L52.3589 67.3992L51.5327 67.9143C50.6004 68.494 49.7817 69.2388 49.1166 70.1121C51.4211 71.5439 53.8508 72.7635 56.3757 73.7561C56.7222 73.8878 57.0995 73.9165 57.4619 73.8386C57.8244 73.7608 58.1566 73.5798 58.4185 73.3175L58.422 73.314C58.6855 73.0489 58.8663 72.713 58.9423 72.3471C59.0184 71.9812 58.9864 71.6011 58.8503 71.253C57.308 67.4419 55.3156 63.8289 52.9155 60.4908ZM25.7715 35.0147C24.9024 35.492 24.1118 36.1 23.4273 36.8173L21.9377 38.3067C21.2944 38.9148 20.7383 39.609 20.2853 40.3696C16.443 39.574 12.6694 38.476 9 37.086C9.20424 36.2517 9.46943 35.4335 9.79342 34.6381C12.6292 35.7396 15.5401 36.6368 18.504 37.3229L10.883 32.4229C11.3135 31.6821 11.7971 30.9736 12.3302 30.3029L22.0351 36.5422C20.2478 33.171 18.0295 30.0466 15.4361 27.2478C16.1224 26.7201 16.8466 26.2435 17.6026 25.8218C19.4431 27.8381 21.0999 30.0147 22.5534 32.3256C21.8722 29.7327 20.9631 27.2052 19.8369 24.7724C20.6438 24.4621 21.4726 24.2117 22.3165 24.0234C23.9156 27.5312 25.076 31.2228 25.7715 35.0147Z" fill="#99B35B"/>
</svg>
