<svg width="86" height="86" viewBox="0 0 86 86" fill="none" xmlns="http://www.w3.org/2000/svg">
<path fill-rule="evenodd" clip-rule="evenodd" d="M15 16.24L34.6 12L57.24 49.33L42.89 58.75C29.33 47.88 19.57 33 15 16.24ZM58.3298 51L69.3898 67.85C70.5598 69.63 70.0698 72.02 68.2898 73.2C66.2998 74.5 63.5298 74.21 62.0998 72.3C61.7498 71.85 61.5198 71.34 61.3798 70.83C60.0098 65.85 58.3198 60.95 55.4798 56.61L53.7598 54L58.3298 51ZM64.5998 69.95C64.5998 70.5 65.0498 70.95 65.5998 70.95C66.1598 70.95 66.5998 70.5 66.5998 69.95C66.5998 69.4 66.1498 68.95 65.5998 68.95C65.0498 68.95 64.5998 69.4 64.5998 69.95Z" fill="#99B35B"/>
</svg>
