<svg width="86" height="86" viewBox="0 0 86 86" fill="none" xmlns="http://www.w3.org/2000/svg">
<path d="M63.7153 40.037V19.6185H65.0859V14.0002H20.2494V19.6185H21.62V40.037H17V42.8081H68.3359V40.037H63.7153ZM60.2016 16.7551C60.4067 16.7551 60.5732 16.9209 60.5732 17.1261C60.5732 17.3312 60.4067 17.4977 60.2016 17.4977C59.9977 17.4977 59.8306 17.3312 59.8306 17.1261C59.8306 16.9209 59.9977 16.7551 60.2016 16.7551ZM55.7113 15.6726H58.6283V18.5902H55.7113V15.6726ZM51.1481 15.6726H54.0651V18.5902H51.1481V15.6726ZM38.0701 38.0628C37.0487 39.0717 35.6401 39.6959 34.0843 39.6959C32.5279 39.6959 31.1193 39.0723 30.0992 38.0628C29.0784 37.0539 28.4455 35.6596 28.4455 34.12C28.4455 32.5804 29.0784 31.1868 30.0992 30.1772C31.1193 29.1696 32.5285 28.546 34.0843 28.546C35.6401 28.546 37.0487 29.1696 38.0701 30.1772C39.0909 31.1874 39.7226 32.5804 39.7226 34.12C39.7232 35.659 39.0915 37.0539 38.0701 38.0628ZM39.4707 29.8517L39.9614 29.6983L40.1036 29.0954L40.2333 29.6834L40.7371 29.8517L40.2451 30.007L40.1029 30.6081L39.9745 30.022L39.4707 29.8517ZM56.121 38.0628C55.1002 39.0717 53.6916 39.6959 52.1352 39.6959C50.58 39.6959 49.1702 39.0723 48.1494 38.0628C47.1286 37.0539 46.4969 35.6596 46.4969 34.12C46.4969 32.5804 47.1292 31.1868 48.1494 30.1772C49.1702 29.1696 50.5794 28.546 52.1352 28.546C53.6916 28.546 55.1002 29.1696 56.121 30.1772C57.1424 31.1874 57.7734 32.5804 57.7734 34.12C57.7741 35.659 57.1424 37.0539 56.121 38.0628ZM61.5235 40.037H58.1326C59.6622 38.5224 60.6088 36.4309 60.6088 34.12C60.6088 29.4944 56.8144 25.7456 52.1352 25.7456C47.456 25.7456 43.6616 29.4944 43.6616 34.12C43.6616 36.4309 44.6082 38.5224 46.1378 40.037H40.0811C41.612 38.5224 42.5573 36.4309 42.5573 34.12C42.5573 31.6601 41.4835 29.4452 39.7731 27.9137L38.8577 28.1999L38.559 29.4676L38.2878 28.2323L37.2246 27.8757L38.2603 27.5514L38.4094 26.9179C37.1435 26.1733 35.6651 25.7456 34.0843 25.7456C29.4045 25.7456 25.6108 29.4944 25.6108 34.12C25.6108 36.4309 26.5567 38.5224 28.0869 40.037H23.7669V22.6521C23.7669 22.0909 24.2265 21.632 24.7877 21.632H60.5015C61.0627 21.632 61.5229 22.0909 61.5229 22.6521L61.5235 40.037ZM62.066 17.4977C61.8609 17.4977 61.6944 17.3312 61.6944 17.1261C61.6944 16.9209 61.8609 16.7551 62.066 16.7551C62.2712 16.7551 62.437 16.9209 62.437 17.1261C62.437 17.3312 62.2718 17.4977 62.066 17.4977Z" fill="#99B35B"/>
<path d="M20.4801 66.7991C20.381 66.9762 20.3242 67.1801 20.3242 67.3958V69.8078C20.3242 70.4818 20.8754 71.0331 21.5495 71.0331H22.9413V71.3498C22.9413 71.6024 23.1477 71.8094 23.4009 71.8094H24.8843C25.1369 71.8094 25.3439 71.6024 25.3439 71.3498V71.0331H60.007V71.3498C60.007 71.6024 60.2141 71.8094 60.4666 71.8094H61.9507C62.2032 71.8094 62.4096 71.6024 62.4096 71.3498V71.0331H63.9037C64.5777 71.0331 65.1296 70.4818 65.1296 69.8078V67.3958C65.1296 67.1801 65.0722 66.9762 64.9731 66.7991H20.4801Z" fill="#99B35B"/>
<path d="M61.5221 43.3948H23.7661H21.6192H17.4395L20.6539 65.8729H21.6192H63.7139H64.7952L67.8955 43.3948H63.7139H61.5221Z" fill="#99B35B"/>
<path d="M34.0861 28.9299C32.6338 28.9299 31.3187 29.5111 30.3684 30.4508C29.4181 31.3905 28.8301 32.6875 28.8301 34.1211C28.8301 35.5553 29.4181 36.8535 30.3684 37.7926C31.3187 38.7323 32.6338 39.3135 34.0861 39.3135C35.5377 39.3135 36.8522 38.7323 37.8031 37.7926C38.7534 36.8535 39.3415 35.5559 39.3415 34.1211C39.3415 32.6875 38.7534 31.3905 37.8031 30.4508C36.8516 29.5111 35.5377 28.9299 34.0861 28.9299ZM34.0861 38.5041C31.6374 38.5041 29.6519 36.5411 29.6519 34.1211C29.6519 31.7017 31.638 29.7393 34.0861 29.7393C36.5342 29.7393 38.5196 31.701 38.5196 34.1211C38.5196 36.5411 36.5342 38.5041 34.0861 38.5041Z" fill="#99B35B"/>
<path d="M38.8296 27.52L39.6277 27.7875C39.349 27.548 39.0528 27.3273 38.7441 27.1252L38.8296 27.52Z" fill="#99B35B"/>
<path d="M52.1362 28.9299C50.684 28.9299 49.3695 29.5111 48.4186 30.4508C47.4683 31.3905 46.8809 32.6875 46.8809 34.1211C46.8809 35.5553 47.4676 36.8535 48.4186 37.7926C49.3695 38.7323 50.684 39.3135 52.1362 39.3135C53.5885 39.3135 54.903 38.7323 55.8539 37.7926C56.8042 36.8535 57.3916 35.5559 57.3916 34.1211C57.3916 32.6875 56.8048 31.3905 55.8539 30.4508C54.9024 29.5111 53.5885 28.9299 52.1362 28.9299ZM52.1362 38.5041C49.6875 38.5041 47.7033 36.5411 47.7033 34.1211C47.7033 31.7017 49.6881 29.7393 52.1362 29.7393C54.5856 29.7393 56.5698 31.701 56.5698 34.1211C56.5698 36.5411 54.585 38.5041 52.1362 38.5041Z" fill="#99B35B"/>
</svg>
