<svg width="86" height="86" viewBox="0 0 86 86" fill="none" xmlns="http://www.w3.org/2000/svg">
<path fill-rule="evenodd" clip-rule="evenodd" d="M70 30.8853H15V71H70V30.8853ZM15 29.5102H70V15H15V29.5102ZM22.4664 34.5813H62.5336C63.433 34.5813 64.2462 34.9547 64.8376 35.552C65.429 36.1493 65.7986 36.9769 65.7986 37.8791V62.9671C65.7986 63.8756 65.429 64.6969 64.8376 65.2942C64.2462 65.8916 63.4269 66.2649 62.5336 66.2649H22.4664C21.567 66.2649 20.7538 65.8916 20.1624 65.2942C19.571 64.6969 19.2014 63.8693 19.2014 62.9671V37.8791C19.2014 36.9707 19.571 36.1493 20.1624 35.552C20.7538 34.9547 21.5731 34.5813 22.4664 34.5813ZM64.4372 61.1938V62.9733C64.4372 63.5022 64.2215 63.9813 63.8766 64.3298C63.5316 64.6782 63.0572 64.896 62.5336 64.896H22.4664C21.9428 64.896 21.4684 64.6782 21.1234 64.3298C20.7785 63.9813 20.5628 63.5022 20.5628 62.9733V61.1938H64.431H64.4372ZM20.5628 59.8187V37.8853C20.5628 37.3564 20.7785 36.8773 21.1234 36.5289C21.4684 36.1804 21.9428 35.9627 22.4664 35.9627H62.5336C63.0572 35.9627 63.5316 36.1804 63.8766 36.5289C64.2215 36.8773 64.4372 37.3564 64.4372 37.8853V59.8187H20.5628ZM23.4767 21.0667C23.8586 21.4524 24.0927 21.9813 24.0927 22.5662C24.0927 23.1511 23.8586 23.68 23.4767 24.0658C23.0948 24.4516 22.5711 24.688 21.992 24.688C21.413 24.688 20.8893 24.4516 20.5074 24.0658C20.1254 23.68 19.8914 23.1511 19.8914 22.5662C19.8914 21.9813 20.1254 21.4524 20.5074 21.0667C20.8893 20.6809 21.413 20.4444 21.992 20.4444C22.5711 20.4444 23.0948 20.6809 23.4767 21.0667ZM21.992 19.0693C22.9469 19.0693 23.8155 19.4613 24.4439 20.096C25.0722 20.7307 25.4604 21.6018 25.4604 22.5724C25.4604 23.5431 25.0722 24.4142 24.4439 25.0489C23.8155 25.6836 22.9531 26.0756 21.992 26.0756C21.031 26.0756 20.1686 25.6836 19.5402 25.0489C18.9119 24.4142 18.5237 23.5431 18.5237 22.5724C18.5237 21.6018 18.9119 20.7307 19.5402 20.096C20.1686 19.4613 21.031 19.0693 21.992 19.0693ZM35.0028 21.0667C35.3847 21.4524 35.6188 21.9813 35.6188 22.5662C35.6188 23.1511 35.3847 23.68 35.0028 24.0658C34.6209 24.4516 34.0972 24.688 33.5181 24.688C32.9391 24.688 32.4154 24.4516 32.0335 24.0658C31.6515 23.68 31.4175 23.1511 31.4175 22.5662C31.4175 21.9813 31.6515 21.4524 32.0335 21.0667C32.4154 20.6809 32.9391 20.4444 33.5181 20.4444C34.0972 20.4444 34.6209 20.6809 35.0028 21.0667ZM33.5181 19.0693C34.473 19.0693 35.3416 19.4613 35.97 20.096C36.5983 20.7307 36.9864 21.6018 36.9864 22.5724C36.9864 23.5431 36.5983 24.4142 35.97 25.0489C35.3416 25.6836 34.4792 26.0756 33.5181 26.0756C32.5571 26.0756 31.6947 25.6836 31.0663 25.0489C30.4379 24.4142 30.0498 23.5431 30.0498 22.5724C30.0498 21.6018 30.4379 20.7307 31.0663 20.096C31.6947 19.4613 32.5571 19.0693 33.5181 19.0693ZM60.9442 19.648C61.5479 19.648 62.0962 19.8969 62.4966 20.3013C62.8971 20.7058 63.1435 21.2596 63.1435 21.8693C63.1435 22.4791 62.8971 23.0329 62.4966 23.4373C62.0962 23.8418 61.5479 24.0907 60.9442 24.0907H47.4283C46.8246 24.0907 46.2763 23.8418 45.8759 23.4373C45.4755 23.0329 45.2291 22.4791 45.2291 21.8693C45.2291 21.2596 45.4755 20.7058 45.8759 20.3013C46.2763 19.8969 46.8246 19.648 47.4283 19.648H60.9442ZM47.4283 18.2667H60.9442C61.9237 18.2667 62.817 18.6711 63.4638 19.3244C64.1107 19.9778 64.5111 20.8738 64.5111 21.8693C64.5111 22.8649 64.1107 23.7609 63.4638 24.4142C62.817 25.0676 61.9299 25.472 60.9442 25.472H47.4283C46.4488 25.472 45.5556 25.0676 44.9087 24.4142C44.2619 23.7609 43.8614 22.8649 43.8614 21.8693C43.8614 20.8738 44.2619 19.9778 44.9087 19.3244C45.5556 18.6711 46.4427 18.2667 47.4283 18.2667Z" fill="#99B35B"/>
</svg>
