<svg width="86" height="86" viewBox="0 0 86 86" fill="none" xmlns="http://www.w3.org/2000/svg">
<path fill-rule="evenodd" clip-rule="evenodd" d="M16.375 70.0001H68.625C69.3812 70.0001 70 69.3814 70 68.6251V41.1251C70 40.3689 69.3812 39.7501 68.625 39.7501H46.625V16.3751C46.625 15.6189 46.0063 15.0001 45.25 15.0001H16.375C15.6187 15.0001 15 15.6189 15 16.3751V68.6251C15 69.3814 15.6187 70.0001 16.375 70.0001ZM65.875 45.2501C65.875 44.4939 65.2562 43.8751 64.5 43.8751H49.375C48.6188 43.8751 48 44.4939 48 45.2501V64.5001C48 65.2564 48.6188 65.8751 49.375 65.8751H64.5C65.2562 65.8751 65.875 65.2564 65.875 64.5001V45.2501ZM42.5 20.5001C42.5 19.7439 41.8813 19.1251 41.125 19.1251H20.5C19.7438 19.1251 19.125 19.7439 19.125 20.5001V64.5001C19.125 65.2564 19.7438 65.8751 20.5 65.8751H41.125C41.8813 65.8751 42.5 65.2564 42.5 64.5001V20.5001ZM63.125 56.2501V63.1251H50.75V56.2501H63.125ZM39.75 56.2501V63.1251H21.875V56.2501H39.75ZM63.125 53.5001H50.75V46.6251H63.125V53.5001ZM39.75 53.5001H21.875V43.8751H39.75V53.5001ZM39.75 41.1251H21.875V31.5001H39.75V41.1251ZM54.1875 24.6251H50.75C49.9938 24.6251 49.375 25.2439 49.375 26.0001V35.6251C49.375 36.3814 49.9938 37.0001 50.75 37.0001H67.25C68.0062 37.0001 68.625 36.3814 68.625 35.6251V26.0001C68.625 25.2439 68.0062 24.6251 67.25 24.6251H63.8125L60.1 19.6751C59.8387 19.3314 59.4263 19.1251 59 19.1251C58.5737 19.1251 58.1613 19.3314 57.9 19.6751L54.1875 24.6251ZM39.75 28.7501H21.875V21.8751H39.75V28.7501ZM57.625 24.6251H60.375L59 22.7964L57.625 24.6251Z" fill="#99B35B"/>
</svg>
