<svg width="86" height="86" viewBox="0 0 86 86" fill="none" xmlns="http://www.w3.org/2000/svg">
<path d="M20.7246 55.8015C25.4241 55.8015 29.5212 57.609 31.4492 60.1396V23.3867C31.4492 19.8922 26.6291 17.0002 20.7246 17.0002C14.82 17.0002 10 19.8922 10 23.3867V60.0191C11.928 57.4885 16.0251 55.8015 20.7246 55.8015Z" fill="#99B35B"/>
<path d="M31.4492 63.3936C31.4492 59.8991 26.6291 57.0071 20.7246 57.0071C14.82 57.0071 10 59.8991 10 63.3936C10 66.8882 14.82 69.7802 20.7246 69.7802C26.6291 69.7802 31.4492 66.8882 31.4492 63.3936ZM20.7246 68.4547C16.0251 68.4547 12.2895 66.1652 12.2895 63.3936C12.2895 60.5016 16.0251 58.3326 20.7246 58.3326C25.4241 58.3326 29.1597 60.5016 29.1597 63.3936C29.1597 66.1652 25.4241 68.4547 20.7246 68.4547Z" fill="#99B35B"/>
<path d="M20.7242 62.1887C18.7962 62.1887 17.4707 62.9117 17.4707 63.3937C17.4707 63.8757 18.7962 64.5987 20.7242 64.5987C22.6522 64.5987 23.9778 63.8757 23.9778 63.3937C23.9778 62.9117 22.6522 62.1887 20.7242 62.1887Z" fill="#99B35B"/>
<path d="M62.4181 53.6322V40.1361C57.357 39.7746 53.3805 35.7981 53.1395 30.8575H32.6543V63.0313H53.1395C53.3805 57.9703 57.357 53.9937 62.4181 53.6322Z" fill="#99B35B"/>
<path d="M76.2755 35.1967L73.1424 31.7022C72.9014 31.4612 72.9014 31.0997 73.1424 30.8587L76.2755 27.3641L73.3834 24.1106H70.7324V69.901H73.3834L76.2755 66.6475L73.1424 63.1529C72.9014 62.9119 72.9014 62.5504 73.1424 62.3094L76.2755 58.8149L73.1424 55.3204C72.9014 55.0794 72.9014 54.7179 73.1424 54.4769L76.2755 50.9823L73.1424 47.4878C72.9014 47.2468 72.9014 46.8853 73.1424 46.6443L76.2755 43.1498L73.1424 39.6552C72.9014 39.4142 72.9014 39.0527 73.1424 38.8117L76.2755 35.1967Z" fill="#99B35B"/>
<path d="M32.6524 29.5315H53.7401C54.1016 29.5315 54.3426 29.7725 54.3426 30.134C54.3426 34.9541 58.3191 38.9306 63.1392 38.9306C63.5007 38.9306 63.7417 39.1716 63.7417 39.5331V54.2342C63.7417 54.5957 63.5007 54.8367 63.1392 54.8367C58.3191 54.8367 54.3426 58.8133 54.3426 63.6333C54.3426 63.9948 54.1016 64.2358 53.7401 64.2358H32.5319C32.1704 66.5253 30.1219 68.5739 27.1094 69.7789H69.5257V23.9885H32.6524V29.5315Z" fill="#99B35B"/>
<path d="M20.7242 59.5374C16.7477 59.5374 13.4941 61.3449 13.4941 63.3934C13.4941 65.4419 16.8682 67.2494 20.7242 67.2494C24.5802 67.2494 27.9543 65.4419 27.9543 63.3934C27.9543 61.2244 24.5802 59.5374 20.7242 59.5374ZM20.7242 65.8034C18.1937 65.8034 16.2657 64.7189 16.2657 63.3934C16.2657 62.0679 18.1937 60.9834 20.7242 60.9834C23.2547 60.9834 25.1827 62.0679 25.1827 63.3934C25.1827 64.7189 23.2547 65.8034 20.7242 65.8034Z" fill="#99B35B"/>
</svg>
