<svg width="86" height="86" viewBox="0 0 86 86" fill="none" xmlns="http://www.w3.org/2000/svg">
<path fill-rule="evenodd" clip-rule="evenodd" d="M20.8202 67.1085H19.8566C19.3243 67.1085 18.8929 66.6763 18.8929 66.1437V47.3169C17.153 46.2034 16 44.2535 16 42.0354C16 38.5766 18.8088 35.7674 22.2677 35.7674C25.7266 35.7674 28.5354 38.5766 28.5354 42.0354V53.1946H57.4647V42.0354C57.4647 38.5766 60.2734 35.7674 63.7323 35.7674C67.1912 35.7674 70 38.5766 70 42.0354C70 44.2535 68.847 46.2034 67.1071 47.3169V66.1437C67.1071 66.6763 66.6758 67.1085 66.1435 67.1085H65.1798V69.0368C65.1798 69.5694 64.7465 70.0003 64.2142 70.0003H59.8758C59.5539 70.0003 59.2509 69.8401 59.0721 69.5719L57.431 67.1085H28.569L26.9279 69.5719C26.7491 69.8401 26.4461 70.0003 26.1242 70.0003H21.7859C21.2536 70.0003 20.8202 69.5694 20.8202 69.0368V67.1085ZM59.7495 67.1085L60.3912 68.072H63.2505V67.1085H59.7495ZM22.7495 67.1085V68.072H25.6088L26.2505 67.1085H22.7495ZM22.7495 34.8191V19.8566C22.7495 17.7262 24.4768 16 26.606 16H59.394C61.5232 16 63.2505 17.7262 63.2505 19.8566V34.8191C59.4824 35.0683 56.501 38.2067 56.501 42.0354V52.2298H29.499V42.0354C29.499 38.2067 26.5177 35.0683 22.7495 34.8191Z" fill="#99B35B"/>
</svg>
