<svg width="69" height="21" viewBox="0 0 69 21" fill="none" xmlns="http://www.w3.org/2000/svg">
<path d="M63.9088 0.299805H59.6088C58.3088 0.299805 57.3088 0.699805 56.7088 1.9998L48.5088 20.6998H54.3088C54.3088 20.6998 55.3088 18.1998 55.5088 17.5998C56.1088 17.5998 61.8088 17.5998 62.6088 17.5998C62.8088 18.2998 63.3088 20.5998 63.3088 20.5998H68.5088L63.9088 0.299805ZM57.1088 13.3998C57.6088 12.1998 59.3088 7.6998 59.3088 7.6998C59.3088 7.7998 59.8088 6.4998 60.0088 5.7998L60.4088 7.5998C60.4088 7.5998 61.5088 12.4998 61.7088 13.4998H57.1088V13.3998Z" fill="#3362AB"/>
<path d="M48.9088 14C48.9088 18.2 45.1088 21 39.2088 21C36.7088 21 34.3088 20.5 33.0088 19.9L33.8088 15.3L34.5088 15.6C36.3088 16.4 37.5088 16.7 39.7088 16.7C41.3088 16.7 43.0088 16.1 43.0088 14.7C43.0088 13.8 42.3088 13.2 40.1088 12.2C38.0088 11.2 35.2088 9.6 35.2088 6.7C35.2088 2.7 39.1088 0 44.6088 0C46.7088 0 48.5088 0.4 49.6088 0.9L48.8088 5.3L48.4088 4.9C47.4088 4.5 46.1088 4.1 44.2088 4.1C42.1088 4.2 41.1088 5.1 41.1088 5.9C41.1088 6.8 42.3088 7.5 44.2088 8.4C47.4088 9.9 48.9088 11.6 48.9088 14Z" fill="#3362AB"/>
<path d="M0.108398 0.499609L0.208398 0.0996094H8.8084C10.0084 0.0996094 10.9084 0.499609 11.2084 1.79961L13.1084 10.7996C11.2084 5.99961 6.8084 2.09961 0.108398 0.499609Z" fill="#F9B50B"/>
<path d="M25.2084 0.299951L16.5084 20.6H10.6084L5.6084 3.59995C9.2084 5.89995 12.2084 9.49995 13.3084 12L13.9084 14.1L19.3084 0.199951H25.2084V0.299951Z" fill="#3362AB"/>
<path d="M27.5088 0.200195H33.0088L29.5088 20.6002H24.0088L27.5088 0.200195Z" fill="#3362AB"/>
</svg>
